<svg t="1706252814760" class="icon" viewBox="0 0 1024 1024" version="1.1" xmlns="http://www.w3.org/2000/svg" p-id="7831" id="mx_n_1706252814761" width="200" height="200"><path d="M645.071238 97.52381L828.952381 281.258667V414.47619h48.761905v390.095239h-48.761905v48.761904a73.142857 73.142857 0 0 1-73.142857 73.142857H268.190476a73.142857 73.142857 0 0 1-73.142857-73.142857v-48.761904H146.285714V414.47619h48.761905V170.666667a73.142857 73.142857 0 0 1 73.142857-73.142857h376.880762zM755.809524 804.571429H268.190476v48.761904h487.619048v-48.761904zM440.271238 520.94781H323.535238v174.445714h116.955429v-35.108572H367.420952v-37.741714h63.414858v-31.597714H367.420952v-34.889143h72.850286v-35.108571z m55.515429 0h-46.299429l45.641143 85.357714-50.249143 89.088h46.957714l33.792-63.634286 33.792 63.634286h46.957715l-50.249143-89.088 45.641143-85.357714h-46.299429l-29.842286 60.342857-29.842285-60.342857z m161.060571 0h-43.885714v174.445714h111.030857v-35.108572h-67.145143v-139.337142zM581.412571 170.642286L268.190476 170.666667v243.809523h487.619048v-49.956571h-174.372572L581.412571 170.666667z m73.142858 39.740952v80.993524h81.042285l-81.042285-80.993524z" p-id="7832" fill="#107c41"></path></svg>