<svg height="126" node-id="1" sillyvg="true" template-height="126" template-width="126" version="1.1" viewBox="0 0 126 126" width="126" xmlns="http://www.w3.org/2000/svg" xmlns:xlink="http://www.w3.org/1999/xlink"><defs node-id="400"></defs><g node-id="1363"><g node-id="1364"><g node-id="1367"><path d="M 105.78 80.16 C 104.29 79.95 90.17 84.57 88.67 90.90 C 87.17 97.24 75.87 103.84 71.06 102.21 C 66.24 100.58 59.93 102.32 59.93 102.32 L 55.96 104.24 L 55.05 104.68 L 55.04 104.68 L 1.00 73.47 L 68.44 34.27 L 120.77 64.49 C 122.42 65.44 123.79 66.85 124.51 68.62 C 128.48 78.33 107.15 80.35 105.78 80.16 Z" fill="#f3f6fd" fill-rule="nonzero" group-id="1,2,5" node-id="412" stroke="none" target-height="70.402596" target-width="127.4819" target-x="1" target-y="34.275"/><path d="M 91.31 80.00 C 91.32 80.26 91.13 80.58 90.90 80.71 C 90.75 80.80 90.62 80.78 90.55 80.68 C 90.57 80.70 90.58 80.73 90.61 80.74 L 87.47 78.92 C 87.35 78.95 87.24 78.92 87.18 78.83 C 87.20 78.86 87.22 78.89 87.24 78.91 L 86.79 78.65 C 86.71 78.60 86.65 78.48 86.65 78.33 C 86.65 78.30 86.66 78.28 86.66 78.26 L 86.35 78.08 C 86.33 78.07 86.32 78.05 86.30 78.04 C 86.29 78.05 86.28 78.06 86.25 78.07 C 84.71 78.97 82.22 78.97 80.67 78.07 C 79.88 77.63 79.50 77.03 79.50 76.45 L 79.50 75.81 C 79.50 75.23 79.88 74.64 80.64 74.20 C 82.19 73.30 84.69 73.30 86.24 74.20 C 87.12 74.71 87.49 75.41 87.36 76.07 C 87.38 75.99 87.40 75.91 87.40 75.83 L 87.40 76.47 C 87.40 76.80 87.27 77.12 87.02 77.42 L 87.13 77.48 C 87.13 77.48 87.14 77.47 87.14 77.46 C 87.29 77.39 87.41 77.38 87.50 77.43 L 87.95 77.69 C 88.02 77.74 88.06 77.82 88.08 77.92 L 91.19 79.73 C 91.27 79.77 91.31 79.87 91.31 80.00 Z" fill="#e1e9f4" fill-rule="nonzero" group-id="1,2,5" node-id="414" stroke="none" target-height="7.4969025" target-width="11.823402" target-x="79.4964" target-y="73.3032"/><path d="M 53.19 86.20 C 53.21 86.16 53.21 86.12 53.18 86.09 L 52.87 85.06 L 48.43 83.01 C 48.49 82.73 48.12 82.64 47.64 82.65 L 47.42 82.54 C 47.55 82.56 47.60 82.50 47.60 82.50 C 48.26 81.92 46.86 81.87 46.15 81.88 C 46.08 81.88 46.03 81.88 45.96 81.88 L 41.30 79.72 C 41.32 79.73 41.34 79.74 41.35 79.76 C 41.33 79.74 41.31 79.73 41.28 79.72 C 42.13 78.93 43.47 77.62 43.95 76.83 C 44.42 76.06 44.93 75.46 45.72 74.68 L 47.73 72.68 C 48.25 72.72 50.71 70.48 51.14 70.38 C 51.79 70.23 51.84 69.22 51.84 69.04 C 51.84 68.86 50.27 69.96 48.62 70.06 L 48.72 69.97 C 48.80 69.90 48.76 69.84 48.62 69.84 C 48.62 69.84 48.02 67.25 47.92 67.30 C 47.71 67.41 47.35 67.63 47.12 67.94 C 47.08 68.00 47.07 68.05 47.09 68.10 L 47.08 68.10 C 47.08 68.10 46.92 68.26 46.68 68.52 C 46.44 68.49 46.16 68.47 45.85 68.49 L 45.95 68.39 C 46.01 68.33 45.97 68.27 45.85 68.26 L 44.07 69.25 C 43.95 69.24 43.81 69.27 43.71 69.32 C 43.49 69.43 42.04 72.58 41.82 72.89 C 41.78 72.95 41.77 73.00 41.79 73.05 C 40.40 74.17 38.83 75.82 37.96 76.76 C 37.55 77.21 36.97 77.65 36.34 78.09 C 34.71 79.21 34.33 80.18 34.70 80.48 C 34.68 80.55 34.62 80.61 34.60 80.63 C 34.60 80.63 34.60 80.63 34.60 80.63 C 34.58 80.67 34.53 80.72 34.50 80.77 L 34.51 80.77 C 34.20 81.23 33.40 81.97 32.08 82.88 C 32.08 82.88 32.08 82.88 32.08 82.89 C 31.27 83.27 30.54 83.62 30.11 83.88 C 28.30 84.89 28.91 85.27 29.50 85.41 C 29.70 85.50 29.97 85.52 30.13 85.53 C 30.08 85.58 30.11 85.62 30.19 85.63 C 30.23 85.64 30.27 85.64 30.31 85.63 C 30.30 85.70 30.27 85.77 30.25 85.83 C 30.22 85.84 30.21 85.85 30.23 85.85 C 30.15 85.92 29.75 86.24 29.26 86.39 C 28.70 86.57 26.91 87.83 30.85 87.75 C 31.25 87.74 31.95 87.72 32.64 87.46 C 33.14 87.27 33.24 87.17 32.77 87.01 C 33.36 86.53 34.43 85.56 33.64 85.36 C 33.43 85.31 33.27 85.39 33.11 85.34 C 33.18 85.32 33.28 85.29 33.33 85.25 C 33.35 85.23 33.37 85.21 33.37 85.20 L 33.37 85.19 C 33.45 85.17 33.52 85.15 33.59 85.13 C 34.08 84.95 34.64 84.80 35.15 84.67 C 35.68 84.54 36.09 84.40 36.42 84.27 C 37.66 83.94 38.98 83.56 39.76 83.44 L 42.17 84.54 C 42.22 84.56 42.27 84.56 42.33 84.55 L 42.91 84.43 C 42.90 84.43 42.90 84.43 42.90 84.43 C 42.96 84.43 43.02 84.40 43.06 84.36 C 43.14 84.29 43.13 84.19 43.04 84.15 L 41.65 83.51 C 41.83 83.53 42.02 83.54 42.21 83.55 L 49.09 86.73 L 49.09 86.73 L 51.35 86.89 C 51.41 86.90 51.50 86.91 51.61 86.90 L 51.62 86.90 L 53.28 87.06 C 53.32 87.06 53.38 87.05 53.43 87.03 C 53.48 87.01 53.50 86.98 53.50 86.96 L 53.19 86.20 Z" fill="#e1e9f4" fill-rule="nonzero" group-id="1,2,5" node-id="416" stroke="none" target-height="20.578506" target-width="26.5948" target-x="26.9073" target-y="67.2467"/><path d="M 74.24 97.19 C 74.27 97.20 74.28 97.21 74.29 97.22 C 74.30 97.25 74.29 97.26 74.24 97.29 C 74.22 97.30 74.20 97.31 74.17 97.31 C 74.17 97.34 74.05 97.39 73.98 97.38 L 73.97 97.38 C 73.95 97.41 73.88 97.44 73.82 97.45 C 73.80 97.45 73.79 97.44 73.77 97.44 C 73.53 97.41 73.38 97.40 73.20 97.34 C 73.18 97.33 73.14 97.33 73.11 97.33 C 73.04 97.35 73.00 97.38 73.00 97.41 L 73.07 97.53 C 73.08 97.54 73.07 97.54 73.06 97.55 C 73.05 97.59 72.96 97.61 72.89 97.61 L 72.88 97.61 C 72.87 97.61 72.85 97.61 72.85 97.60 C 72.67 97.51 72.53 97.42 72.44 97.32 C 72.40 97.27 72.42 97.23 72.40 97.21 C 72.34 97.23 72.28 97.25 72.20 97.26 C 72.20 97.26 70.91 97.17 70.58 97.16 C 70.26 97.13 69.22 96.99 68.98 96.93 C 68.76 96.88 66.53 97.09 65.03 97.05 C 64.90 97.05 64.78 97.04 64.67 97.03 C 64.61 97.04 64.55 97.05 64.47 97.07 C 63.64 97.23 62.62 97.49 62.31 97.56 C 62.29 97.61 62.27 97.66 62.25 97.72 C 62.51 97.67 62.72 97.66 62.80 97.74 C 63.13 98.04 62.87 98.71 62.80 98.87 C 62.73 98.99 62.62 99.14 62.53 99.24 C 62.53 99.29 62.50 99.37 62.45 99.45 C 62.06 100.05 58.68 100.44 58.05 99.80 C 58.05 99.80 57.72 99.67 57.88 99.24 C 57.87 99.24 57.87 99.24 57.87 99.24 C 57.82 99.19 57.72 99.16 57.68 99.11 C 57.61 99.04 57.69 98.93 57.76 98.85 C 57.86 98.73 57.96 98.61 58.05 98.49 C 58.10 98.43 58.16 98.37 58.25 98.31 C 58.36 98.25 58.52 98.20 58.63 98.13 C 58.77 98.05 58.79 97.95 58.84 97.85 C 57.43 98.24 55.49 98.57 55.31 98.67 C 55.10 98.78 54.18 99.18 53.87 99.28 C 53.56 99.38 52.36 99.80 52.36 99.80 L 52.16 99.80 C 52.15 99.82 52.17 99.86 52.15 99.91 C 52.11 100.03 52.01 100.15 51.88 100.28 C 51.86 100.29 51.85 100.30 51.83 100.31 C 51.80 100.31 51.78 100.32 51.75 100.32 C 51.71 100.32 51.67 100.31 51.65 100.29 C 51.63 100.28 51.63 100.28 51.63 100.27 L 51.64 100.14 C 51.65 100.11 51.60 100.09 51.52 100.10 C 51.49 100.10 51.46 100.11 51.45 100.13 C 51.29 100.23 51.15 100.28 50.94 100.37 C 50.92 100.38 50.91 100.38 50.89 100.38 C 50.83 100.40 50.76 100.38 50.72 100.36 L 50.71 100.37 C 50.65 100.38 50.52 100.37 50.50 100.34 C 50.47 100.34 50.46 100.34 50.43 100.33 C 50.38 100.33 50.36 100.31 50.36 100.28 C 50.36 100.27 50.37 100.26 50.39 100.25 C 50.24 100.25 50.31 100.18 50.33 100.17 C 50.56 100.02 50.71 99.87 51.30 99.67 C 51.35 99.65 51.40 99.64 51.44 99.62 L 51.53 99.57 C 51.52 99.54 51.52 99.53 51.52 99.53 C 51.60 99.43 54.04 98.36 54.16 98.24 C 54.26 98.16 56.60 97.33 58.30 96.96 C 58.66 96.50 58.96 96.32 59.78 95.43 C 60.93 94.16 60.99 93.68 61.10 93.33 C 61.10 93.33 61.12 93.32 61.16 93.31 C 60.98 93.02 60.89 92.55 61.79 91.93 C 62.49 91.45 63.76 90.28 63.89 89.90 C 64.30 88.70 65.94 87.51 65.94 87.51 C 65.96 87.33 66.71 84.50 67.02 84.38 C 67.43 84.22 67.72 84.03 68.76 84.04 C 68.78 84.03 69.06 84.38 69.07 84.37 C 69.08 84.19 69.35 85.91 69.67 85.78 C 70.11 85.61 70.57 85.54 71.74 85.53 C 71.97 85.52 72.19 85.53 72.41 85.54 C 72.85 85.58 73.87 85.10 74.13 85.27 C 74.13 85.27 74.53 86.57 73.32 86.62 C 72.30 86.64 71.45 86.91 70.65 87.09 C 70.85 87.13 71.02 87.18 71.12 87.25 C 71.12 87.25 71.35 87.50 70.15 87.54 L 70.11 87.54 C 69.86 87.99 69.60 88.60 69.32 89.13 C 69.20 89.39 69.12 89.64 69.12 89.87 C 69.12 91.34 68.56 92.15 68.33 92.41 C 68.37 92.44 68.42 92.46 68.46 92.47 C 68.46 92.47 67.89 92.97 67.47 93.40 C 67.15 93.73 66.56 94.38 66.53 94.69 C 66.52 94.87 66.83 95.26 66.99 95.34 C 67.25 95.48 67.44 95.81 67.01 96.05 C 68.43 96.08 69.83 96.19 69.92 96.24 C 70.08 96.32 72.79 96.72 72.90 96.80 C 72.90 96.80 72.91 96.81 72.90 96.84 L 73.02 96.85 C 73.06 96.86 73.11 96.87 73.17 96.87 C 73.81 96.91 73.99 97.02 74.28 97.10 C 74.29 97.10 74.38 97.15 74.24 97.19 Z" fill="#e1e9f4" fill-rule="nonzero" group-id="1,2,5" node-id="418" stroke="none" target-height="16.414696" target-width="24.292698" target-x="50.2403" target-y="84.0266"/><g node-id="1374"><g node-id="1382"><g node-id="1387"><path d="M 84.77 67.63 L 89.03 60.24 C 89.10 60.11 89.06 60.00 88.94 59.93 L 88.37 59.61 L 88.34 59.59 C 88.22 59.52 88.02 59.49 87.75 59.52 C 88.02 59.49 88.18 59.42 88.22 59.34 L 88.60 58.67 C 88.65 58.58 88.59 58.48 88.41 58.38 L 77.97 52.45 C 77.60 52.24 76.87 52.11 76.35 52.16 L 51.26 54.67 C 50.99 54.70 50.84 54.76 50.79 54.85 L 50.40 55.52 C 50.35 55.60 50.41 55.71 50.60 55.81 L 61.04 61.74 C 61.41 61.95 62.13 62.07 62.66 62.02 C 62.13 62.07 61.59 62.33 61.44 62.59 L 57.19 69.98 C 57.11 70.12 57.16 70.23 57.29 70.30 L 57.87 70.63 C 57.99 70.70 58.20 70.73 58.46 70.70 L 59.30 70.62 L 57.70 73.35 C 57.49 73.72 57.73 74.25 58.25 74.55 C 58.52 74.70 58.81 74.76 59.05 74.74 L 79.40 72.67 C 79.38 72.67 79.36 72.68 79.35 72.67 C 79.61 72.66 79.83 72.56 79.95 72.36 L 82.32 68.32 L 82.32 68.32 L 83.55 68.20 C 84.08 68.14 84.62 67.89 84.77 67.63 Z" fill="#e1e9f4" fill-rule="nonzero" group-id="1,2,5,12,20,25" node-id="426" stroke="none" target-height="22.645798" target-width="38.7503" target-x="50.3505" target-y="52.1127"/></g></g></g><g node-id="1375"><g node-id="1383"><g node-id="1388"><g node-id="1408"><g node-id="1423"><path d="M 105.60 75.14 L 106.00 74.71 L 106.97 74.82 L 107.19 74.58 L 106.69 73.95 L 107.67 74.06 L 107.96 73.75 L 107.72 73.62 L 107.39 73.21 L 107.80 72.77 L 108.77 72.87 L 108.98 72.65 L 105.74 68.59 L 88.45 67.42 L 87.15 68.83 L 87.65 69.47 L 86.66 69.36 L 85.35 70.77 L 94.15 76.81 L 105.88 76.00 L 106.16 75.69 L 105.92 75.55 Z" fill="#e1e9f4" fill-rule="nonzero" group-id="1,2,5,13,21,26,46,61" node-id="441" stroke="none" target-height="9.387901" target-width="23.630798" target-x="85.3513" target-y="67.4221"/></g></g></g></g></g><path d="M 120.41 64.28 L 82.02 86.29 L 72.84 80.99 L 111.22 58.98 L 110.67 58.66 L 72.29 80.67 L 43.64 64.13 L 82.02 42.12 L 81.47 41.80 L 43.09 63.81 L 33.91 58.51 L 72.29 36.50 L 71.74 36.18 L 4.04 75.23 L 4.59 75.55 L 33.47 58.76 L 42.65 64.06 L 13.77 80.85 L 14.32 81.17 L 43.20 64.38 L 52.47 69.73 L 23.59 86.52 L 23.98 86.74 L 52.86 69.96 L 62.21 75.35 L 33.32 92.14 L 33.71 92.36 L 62.59 75.58 L 71.85 80.92 L 42.97 97.71 L 43.52 98.03 L 72.40 81.24 L 81.59 86.54 L 52.71 103.33 L 53.26 103.65 L 120.96 64.60 Z" fill="#fdfeff" fill-rule="nonzero" group-id="1,2,5" node-id="448" stroke="none" target-height="67.4648" target-width="116.9149" target-x="4.0423" target-y="36.1823"/></g><g node-id="1368"><g node-id="1376"><g node-id="1384"><g node-id="1389"><g node-id="1409"><g node-id="1424"><g node-id="1474"><g node-id="1490"><g node-id="1499"><g node-id="1505"><path d="M 89.44 41.41 L 67.34 28.65 C 67.11 28.52 66.90 28.51 66.75 28.60 L 66.00 29.03 C 66.15 28.94 66.36 28.95 66.59 29.09 L 67.03 29.33 L 66.59 30.04 L 66.55 45.07 L 88.65 57.82 L 89.48 58.31 C 89.48 58.57 89.39 58.75 89.24 58.84 L 89.98 58.40 C 90.13 58.32 90.23 58.13 90.23 57.87 L 90.27 42.85 C 90.27 42.32 89.90 41.68 89.44 41.41 Z" fill="#3887e5" fill-rule="nonzero" group-id="1,2,6,14,22,27,47,62,112,128,137,143" node-id="471" stroke="none" target-height="30.3317" target-width="24.270203" target-x="66" target-y="28.507"/><g node-id="1509"><g node-id="1515"><g node-id="1522"><path d="M 88.69 41.84 C 89.15 42.11 89.52 42.76 89.52 43.29 L 89.48 58.30 C 89.48 58.84 89.10 59.05 88.64 58.78 L 66.55 46.02 C 66.08 45.76 65.71 45.11 65.71 44.58 L 65.76 29.56 C 65.76 29.04 66.13 28.82 66.59 29.09 L 88.69 41.84 Z" fill="#a6c2ff" fill-rule="nonzero" group-id="1,2,6,14,22,27,47,62,112,128,137,143,147,153,160" node-id="479" stroke="none" target-height="30.227" target-width="23.8115" target-x="65.7129" target-y="28.8197"/></g></g></g><path d="M 88.69 42.80 L 88.65 57.83 L 66.55 45.07 L 66.59 30.04 Z" fill="#4c4a8b" fill-rule="nonzero" group-id="1,2,6,14,22,27,47,62,112,128,137,143,148" node-id="486" stroke="none" target-height="27.7834" target-width="22.143204" target-x="66.547" target-y="30.0422"/></g><g node-id="1506"><g node-id="1511"><g node-id="1516"><g node-id="1523"><path d="M 88.99 59.27 L 88.99 60.63 C 88.99 60.80 88.87 60.97 88.64 61.11 L 75.66 68.65 C 75.20 68.92 74.45 68.92 73.99 68.65 L 51.90 55.90 C 51.66 55.76 51.55 55.59 51.55 55.41 L 51.55 54.05 C 51.55 53.88 51.67 53.70 51.90 53.57 L 64.88 46.02 C 65.34 45.75 66.09 45.76 66.55 46.02 L 88.64 58.78 C 88.87 58.92 88.99 59.09 88.99 59.27 Z" fill="#83a1cc" fill-rule="nonzero" group-id="1,2,6,14,22,27,47,62,112,128,137,144,149,154,161" node-id="498" stroke="none" target-height="23.1641" target-width="37.4391" target-x="51.5499" target-y="45.7536"/></g></g></g><g node-id="1512"><g node-id="1517"><g node-id="1524"><g node-id="1525"><path d="M 88.99 59.27 L 88.99 60.63 C 88.99 60.80 88.87 60.97 88.64 61.11 L 75.66 68.65 C 75.20 68.92 74.45 68.92 73.99 68.65 L 51.90 55.90 C 51.66 55.76 51.55 55.58 51.55 55.41 L 51.55 54.05 C 51.55 54.22 51.67 54.40 51.90 54.53 L 74.00 67.29 C 74.46 67.56 75.21 67.56 75.66 67.29 L 88.65 59.74 C 88.88 59.61 88.99 59.44 88.99 59.27 Z" fill="#83a1cc" fill-rule="nonzero" group-id="1,2,6,14,22,27,47,62,112,128,137,144,150,155,162,163" node-id="511" stroke="none" target-height="14.8675" target-width="37.4391" target-x="51.5499" target-y="54.0487"/></g><g node-id="1526"><g node-id="1528"><path d="M 85.25 62.26 L 85.25 62.71 L 83.71 63.60 L 83.71 63.15 Z" fill="#3a3a77" fill-rule="nonzero" group-id="1,2,6,14,22,27,47,62,112,128,137,144,150,155,162,164,166" node-id="518" stroke="none" target-height="1.3404999" target-width="1.5397034" target-x="83.711" target-y="62.2586"/></g><g node-id="1529"><path d="M 82.33 63.94 L 82.33 64.40 L 81.44 64.91 L 81.44 64.46 Z" fill="#3a3a77" fill-rule="nonzero" group-id="1,2,6,14,22,27,47,62,112,128,137,144,150,155,162,164,167" node-id="523" stroke="none" target-height="0.96770096" target-width="0.8940048" target-x="81.4368" target-y="63.9444"/></g><g node-id="1530"><path d="M 87.42 61.01 L 87.42 61.46 L 85.88 62.35 L 85.88 61.90 Z" fill="#3a3a77" fill-rule="nonzero" group-id="1,2,6,14,22,27,47,62,112,128,137,144,150,155,162,164,168" node-id="528" stroke="none" target-height="1.3404999" target-width="1.5397034" target-x="85.8771" target-y="61.008"/></g><path d="M 88.19 60.56 C 88.30 60.50 88.39 60.55 88.39 60.67 C 88.39 60.80 88.30 60.95 88.19 61.01 C 88.08 61.08 88.00 61.03 87.99 60.90 C 87.99 60.77 88.08 60.62 88.19 60.56 Z" fill="#3a3a77" fill-rule="nonzero" group-id="1,2,6,14,22,27,47,62,112,128,137,144,150,155,162,164,169" node-id="533" stroke="none" target-height="0.57709885" target-width="0.39179993" target-x="87.9946" target-y="60.4986"/></g><path d="M 88.64 58.78 C 89.10 59.05 89.11 59.48 88.65 59.74 L 75.66 67.29 C 75.21 67.56 74.46 67.56 74.00 67.29 L 51.90 54.53 C 51.44 54.27 51.44 53.83 51.90 53.57 L 64.88 46.02 C 65.34 45.76 66.09 45.76 66.55 46.02 L 88.64 58.78 Z" fill="#dee7f8" fill-rule="nonzero" group-id="1,2,6,14,22,27,47,62,112,128,137,144,150,155,162,165" node-id="539" stroke="none" target-height="21.800297" target-width="37.6679" target-x="51.4392" target-y="45.7551"/></g></g><path d="M 71.30 59.81 L 64.28 55.75 C 64.13 55.67 63.90 55.67 63.75 55.75 L 60.33 57.74 C 60.19 57.82 60.19 57.96 60.34 58.05 L 67.36 62.10 C 67.50 62.18 67.74 62.18 67.88 62.10 L 71.30 60.11 C 71.45 60.03 71.45 59.89 71.30 59.81 Z" fill="#b6cbea" fill-rule="nonzero" group-id="1,2,6,14,22,27,47,62,112,128,137,144,150" node-id="544" stroke="none" target-height="6.5169983" target-width="11.263702" target-x="60.1855" target-y="55.6664"/></g></g></g></g></g></g><g node-id="1425"><path d="M 84.88 58.36 L 85.32 58.10 L 84.53 57.64 L 84.08 57.90 Z" fill="#83a1cc" fill-rule="nonzero" group-id="1,2,6,14,22,27,47,63" node-id="554" stroke="none" target-height="0.7193985" target-width="1.2432022" target-x="84.0788" target-y="57.6361"/><path d="M 83.83 57.75 L 84.28 57.49 L 83.48 57.03 L 83.04 57.29 Z" fill="#83a1cc" fill-rule="nonzero" group-id="1,2,6,14,22,27,47,63" node-id="556" stroke="none" target-height="0.71899796" target-width="1.2432022" target-x="83.0372" target-y="57.0349"/><path d="M 79.27 59.49 L 78.41 59.98 L 79.21 60.44 L 80.06 59.95 Z" fill="#83a1cc" fill-rule="nonzero" group-id="1,2,6,14,22,27,47,63" node-id="558" stroke="none" target-height="0.955101" target-width="1.6492996" target-x="78.4132" target-y="59.486"/><path d="M 72.20 52.37 L 73.06 51.88 L 72.15 51.35 L 71.29 51.85 Z" fill="#83a1cc" fill-rule="nonzero" group-id="1,2,6,14,22,27,47,63" node-id="560" stroke="none" target-height="1.0197983" target-width="1.7613983" target-x="71.2939" target-y="51.3544"/><path d="M 68.99 53.56 L 68.14 54.05 L 69.05 54.58 L 69.90 54.08 Z" fill="#83a1cc" fill-rule="nonzero" group-id="1,2,6,14,22,27,47,63" node-id="562" stroke="none" target-height="1.0201988" target-width="1.762001" target-x="68.1413" target-y="53.5553"/><path d="M 70.25 55.62 L 69.40 56.12 L 70.31 56.64 L 71.16 56.15 Z" fill="#83a1cc" fill-rule="nonzero" group-id="1,2,6,14,22,27,47,63" node-id="564" stroke="none" target-height="1.0197983" target-width="1.7606964" target-x="69.3988" target-y="55.6212"/><path d="M 69.04 54.92 L 68.19 55.42 L 69.10 55.95 L 69.95 55.45 Z" fill="#83a1cc" fill-rule="nonzero" group-id="1,2,6,14,22,27,47,63" node-id="566" stroke="none" target-height="1.0205994" target-width="1.762001" target-x="68.1916" target-y="54.9245"/><path d="M 70.20 54.25 L 69.35 54.75 L 70.26 55.27 L 71.11 54.78 Z" fill="#83a1cc" fill-rule="nonzero" group-id="1,2,6,14,22,27,47,63" node-id="568" stroke="none" target-height="1.0205994" target-width="1.762001" target-x="69.3486" target-y="54.2523"/><path d="M 68.33 51.83 L 67.48 52.33 L 68.39 52.85 L 69.24 52.36 Z" fill="#83a1cc" fill-rule="nonzero" group-id="1,2,6,14,22,27,47,63" node-id="570" stroke="none" target-height="1.0194969" target-width="1.7606964" target-x="67.4793" target-y="51.8324"/><path d="M 67.84 54.23 L 66.98 54.72 L 67.89 55.25 L 68.75 54.75 Z" fill="#83a1cc" fill-rule="nonzero" group-id="1,2,6,14,22,27,47,63" node-id="572" stroke="none" target-height="1.0201988" target-width="1.762001" target-x="66.9843" target-y="54.2279"/><path d="M 64.22 52.14 L 63.36 52.63 L 64.27 53.16 L 65.13 52.66 Z" fill="#83a1cc" fill-rule="nonzero" group-id="1,2,6,14,22,27,47,63" node-id="574" stroke="none" target-height="1.0197983" target-width="1.7612991" target-x="63.3646" target-y="52.1376"/><path d="M 65.42 52.83 L 64.57 53.33 L 65.48 53.85 L 66.33 53.36 Z" fill="#83a1cc" fill-rule="nonzero" group-id="1,2,6,14,22,27,47,63" node-id="576" stroke="none" target-height="1.0198021" target-width="1.7612991" target-x="64.5712" target-y="52.8346"/><path d="M 66.63 53.53 L 65.78 54.03 L 66.69 54.55 L 67.54 54.06 Z" fill="#83a1cc" fill-rule="nonzero" group-id="1,2,6,14,22,27,47,63" node-id="578" stroke="none" target-height="1.0199013" target-width="1.7613068" target-x="65.7784" target-y="53.5312"/><path d="M 67.79 52.86 L 66.94 53.35 L 67.84 53.88 L 68.70 53.38 Z" fill="#83a1cc" fill-rule="nonzero" group-id="1,2,6,14,22,27,47,63" node-id="580" stroke="none" target-height="1.0198975" target-width="1.7613983" target-x="66.9354" target-y="52.859"/><path d="M 75.70 59.75 L 76.65 60.30 L 76.97 60.12 L 76.02 59.57 Z" fill="#83a1cc" fill-rule="nonzero" group-id="1,2,6,14,22,27,47,63" node-id="582" stroke="none" target-height="0.73609924" target-width="1.273201" target-x="75.6972" target-y="59.5675"/><path d="M 74.82 58.88 L 74.50 59.06 L 75.46 59.62 L 75.78 59.43 Z" fill="#83a1cc" fill-rule="nonzero" group-id="1,2,6,14,22,27,47,63" node-id="584" stroke="none" target-height="0.73609924" target-width="1.2731018" target-x="74.5049" target-y="58.879"/><path d="M 75.36 58.57 L 75.04 58.76 L 75.99 59.31 L 76.31 59.12 Z" fill="#83a1cc" fill-rule="nonzero" group-id="1,2,6,14,22,27,47,63" node-id="586" stroke="none" target-height="0.73600006" target-width="1.273201" target-x="75.0372" target-y="58.5694"/><path d="M 71.46 56.32 L 70.61 56.81 L 71.51 57.34 L 72.37 56.84 Z" fill="#83a1cc" fill-rule="nonzero" group-id="1,2,6,14,22,27,47,63" node-id="588" stroke="none" target-height="1.0198021" target-width="1.7613983" target-x="70.6054" target-y="56.3182"/><path d="M 72.15 51.01 L 72.60 50.75 L 71.69 50.22 L 71.24 50.48 Z" fill="#83a1cc" fill-rule="nonzero" group-id="1,2,6,14,22,27,47,63" node-id="590" stroke="none" target-height="0.78419876" target-width="1.3559952" target-x="71.2396" target-y="50.2232"/><path d="M 71.00 51.68 L 71.85 51.18 L 70.94 50.66 L 70.09 51.15 Z" fill="#83a1cc" fill-rule="nonzero" group-id="1,2,6,14,22,27,47,63" node-id="592" stroke="none" target-height="1.0198021" target-width="1.7605972" target-x="70.0874" target-y="50.6574"/><path d="M 73.36 51.70 L 73.80 51.44 L 72.89 50.92 L 72.45 51.18 Z" fill="#83a1cc" fill-rule="nonzero" group-id="1,2,6,14,22,27,47,63" node-id="594" stroke="none" target-height="0.78419876" target-width="1.3553009" target-x="72.4469" target-y="50.9202"/><path d="M 74.56 52.40 L 75.01 52.14 L 74.10 51.62 L 73.65 51.88 Z" fill="#83a1cc" fill-rule="nonzero" group-id="1,2,6,14,22,27,47,63" node-id="596" stroke="none" target-height="0.78430176" target-width="1.355896" target-x="73.6535" target-y="51.6171"/><path d="M 70.46 52.71 L 71.31 52.21 L 70.40 51.69 L 69.55 52.18 Z" fill="#83a1cc" fill-rule="nonzero" group-id="1,2,6,14,22,27,47,63" node-id="598" stroke="none" target-height="1.0198021" target-width="1.7613068" target-x="69.5489" target-y="51.6871"/><path d="M 73.41 53.07 L 74.26 52.58 L 73.35 52.05 L 72.50 52.55 Z" fill="#83a1cc" fill-rule="nonzero" group-id="1,2,6,14,22,27,47,63" node-id="600" stroke="none" target-height="1.0199013" target-width="1.7612991" target-x="72.5012" target-y="52.051"/><path d="M 75.77 53.10 L 76.22 52.84 L 75.31 52.31 L 74.86 52.57 Z" fill="#83a1cc" fill-rule="nonzero" group-id="1,2,6,14,22,27,47,63" node-id="602" stroke="none" target-height="0.78419876" target-width="1.3553009" target-x="74.8607" target-y="52.3138"/><path d="M 71.66 53.40 L 72.52 52.91 L 71.61 52.38 L 70.76 52.88 Z" fill="#83a1cc" fill-rule="nonzero" group-id="1,2,6,14,22,27,47,63" node-id="604" stroke="none" target-height="1.0198975" target-width="1.7612991" target-x="70.7562" target-y="52.3837"/><path d="M 69.54 52.53 L 68.69 53.02 L 69.60 53.55 L 70.45 53.05 Z" fill="#83a1cc" fill-rule="nonzero" group-id="1,2,6,14,22,27,47,63" node-id="606" stroke="none" target-height="1.0195007" target-width="1.759903" target-x="68.6866" target-y="52.5294"/><path d="M 74.62 53.77 L 75.47 53.27 L 74.56 52.75 L 73.71 53.24 Z" fill="#83a1cc" fill-rule="nonzero" group-id="1,2,6,14,22,27,47,63" node-id="608" stroke="none" target-height="1.0198975" target-width="1.7612991" target-x="73.7078" target-y="52.748"/><path d="M 76.98 53.80 L 77.42 53.54 L 76.51 53.01 L 76.07 53.27 Z" fill="#83a1cc" fill-rule="nonzero" group-id="1,2,6,14,22,27,47,63" node-id="610" stroke="none" target-height="0.7845993" target-width="1.3566055" target-x="76.0666" target-y="53.0104"/><path d="M 72.87 54.10 L 73.72 53.61 L 72.82 53.08 L 71.96 53.58 Z" fill="#83a1cc" fill-rule="nonzero" group-id="1,2,6,14,22,27,47,63" node-id="612" stroke="none" target-height="1.0198021" target-width="1.7613983" target-x="71.9627" target-y="53.0804"/><path d="M 70.74 53.23 L 69.89 53.72 L 70.80 54.25 L 71.65 53.75 Z" fill="#83a1cc" fill-rule="nonzero" group-id="1,2,6,14,22,27,47,63" node-id="614" stroke="none" target-height="1.0191002" target-width="1.7605972" target-x="69.8932" target-y="53.2264"/><path d="M 75.82 54.46 L 76.68 53.97 L 75.77 53.44 L 74.91 53.94 Z" fill="#83a1cc" fill-rule="nonzero" group-id="1,2,6,14,22,27,47,63" node-id="616" stroke="none" target-height="1.0205994" target-width="1.762001" target-x="74.9144" target-y="53.4443"/><path d="M 74.08 54.80 L 74.93 54.30 L 74.02 53.78 L 73.17 54.27 Z" fill="#83a1cc" fill-rule="nonzero" group-id="1,2,6,14,22,27,47,63" node-id="618" stroke="none" target-height="1.0201988" target-width="1.762001" target-x="73.1693" target-y="53.777"/><path d="M 77.03 55.16 L 77.88 54.67 L 76.97 54.14 L 76.12 54.64 Z" fill="#83a1cc" fill-rule="nonzero" group-id="1,2,6,14,22,27,47,63" node-id="620" stroke="none" target-height="1.0205002" target-width="1.7626953" target-x="76.1209" target-y="54.141"/><path d="M 75.29 55.49 L 76.14 55.00 L 75.23 54.47 L 74.38 54.97 Z" fill="#83a1cc" fill-rule="nonzero" group-id="1,2,6,14,22,27,47,63" node-id="622" stroke="none" target-height="1.0205002" target-width="1.762001" target-x="74.3759" target-y="54.4737"/><path d="M 73.16 54.62 L 72.31 55.11 L 73.22 55.64 L 74.07 55.14 Z" fill="#83a1cc" fill-rule="nonzero" group-id="1,2,6,14,22,27,47,63" node-id="624" stroke="none" target-height="1.0197983" target-width="1.7612991" target-x="72.3063" target-y="54.6197"/><path d="M 78.24 55.86 L 79.09 55.36 L 78.18 54.84 L 77.33 55.33 Z" fill="#83a1cc" fill-rule="nonzero" group-id="1,2,6,14,22,27,47,63" node-id="626" stroke="none" target-height="1.0195007" target-width="1.7612991" target-x="77.3282" target-y="54.8383"/><path d="M 76.49 56.19 L 77.34 55.70 L 76.44 55.17 L 75.58 55.67 Z" fill="#83a1cc" fill-rule="nonzero" group-id="1,2,6,14,22,27,47,63" node-id="628" stroke="none" target-height="1.0197983" target-width="1.7612991" target-x="75.5832" target-y="55.1707"/><path d="M 74.36 55.32 L 73.51 55.81 L 74.42 56.34 L 75.27 55.84 Z" fill="#83a1cc" fill-rule="nonzero" group-id="1,2,6,14,22,27,47,63" node-id="630" stroke="none" target-height="1.0199013" target-width="1.7612991" target-x="73.5136" target-y="55.3163"/><path d="M 72.61 55.65 L 71.76 56.14 L 72.67 56.67 L 73.52 56.17 Z" fill="#83a1cc" fill-rule="nonzero" group-id="1,2,6,14,22,27,47,63" node-id="632" stroke="none" target-height="1.0197983" target-width="1.761406" target-x="71.7624" target-y="55.646"/><path d="M 77.70 56.89 L 78.55 56.39 L 77.64 55.87 L 76.79 56.36 Z" fill="#83a1cc" fill-rule="nonzero" group-id="1,2,6,14,22,27,47,63" node-id="634" stroke="none" target-height="1.0198021" target-width="1.760704" target-x="76.7904" target-y="55.8677"/><path d="M 75.57 56.01 L 74.72 56.51 L 75.63 57.03 L 76.48 56.54 Z" fill="#83a1cc" fill-rule="nonzero" group-id="1,2,6,14,22,27,47,63" node-id="636" stroke="none" target-height="1.0194969" target-width="1.7605972" target-x="74.7202" target-y="56.0133"/><path d="M 74.73 56.87 L 73.82 56.34 L 72.97 56.84 L 73.88 57.36 Z" fill="#83a1cc" fill-rule="nonzero" group-id="1,2,6,14,22,27,47,63" node-id="638" stroke="none" target-height="1.0198021" target-width="1.7612991" target-x="72.969" target-y="56.343"/><path d="M 81.27 57.61 L 82.12 57.11 L 79.39 55.53 L 78.54 56.03 Z" fill="#83a1cc" fill-rule="nonzero" group-id="1,2,6,14,22,27,47,63" node-id="640" stroke="none" target-height="2.0736008" target-width="3.586502" target-x="78.5354" target-y="55.535"/><path d="M 76.78 56.71 L 75.93 57.20 L 76.84 57.73 L 77.69 57.23 Z" fill="#83a1cc" fill-rule="nonzero" group-id="1,2,6,14,22,27,47,63" node-id="642" stroke="none" target-height="1.0191994" target-width="1.760704" target-x="75.9274" target-y="56.7103"/><path d="M 75.03 57.04 L 74.18 57.53 L 75.09 58.06 L 75.94 57.56 Z" fill="#83a1cc" fill-rule="nonzero" group-id="1,2,6,14,22,27,47,63" node-id="644" stroke="none" target-height="1.0202026" target-width="1.762001" target-x="74.1756" target-y="57.0393"/><path d="M 80.11 58.28 L 80.97 57.79 L 80.06 57.26 L 79.20 57.76 Z" fill="#83a1cc" fill-rule="nonzero" group-id="1,2,6,14,22,27,47,63" node-id="646" stroke="none" target-height="1.0199013" target-width="1.7612991" target-x="79.2043" target-y="57.2613"/><path d="M 82.68 58.42 L 83.53 57.93 L 82.74 57.47 L 81.88 57.96 Z" fill="#83a1cc" fill-rule="nonzero" group-id="1,2,6,14,22,27,47,63" node-id="648" stroke="none" target-height="0.955101" target-width="1.6486969" target-x="81.8849" target-y="57.4687"/><path d="M 85.92 58.96 L 86.36 58.70 L 85.57 58.24 L 85.12 58.50 Z" fill="#83a1cc" fill-rule="nonzero" group-id="1,2,6,14,22,27,47,63" node-id="650" stroke="none" target-height="0.71900177" target-width="1.2439957" target-x="85.121" target-y="58.2381"/><path d="M 77.99 57.41 L 77.13 57.90 L 78.96 58.95 L 79.81 58.46 Z" fill="#83a1cc" fill-rule="nonzero" group-id="1,2,6,14,22,27,47,63" node-id="652" stroke="none" target-height="1.5463982" target-width="2.6732025" target-x="77.1347" target-y="57.407"/><path d="M 84.58 58.53 L 83.78 58.07 L 82.93 58.57 L 83.72 59.02 Z" fill="#83a1cc" fill-rule="nonzero" group-id="1,2,6,14,22,27,47,63" node-id="654" stroke="none" target-height="0.95470047" target-width="1.6486053" target-x="82.9265" target-y="58.0703"/><path d="M 81.58 58.14 L 80.73 58.64 L 81.52 59.10 L 82.38 58.60 Z" fill="#83a1cc" fill-rule="nonzero" group-id="1,2,6,14,22,27,47,63" node-id="656" stroke="none" target-height="0.95500183" target-width="1.6486053" target-x="80.7279" target-y="58.141"/><path d="M 86.61 58.84 L 86.16 59.10 L 86.96 59.56 L 87.41 59.30 Z" fill="#83a1cc" fill-rule="nonzero" group-id="1,2,6,14,22,27,47,63" node-id="658" stroke="none" target-height="0.71979904" target-width="1.2432022" target-x="86.164" target-y="58.8396"/><path d="M 84.82 58.67 L 83.97 59.17 L 84.77 59.63 L 85.62 59.13 Z" fill="#83a1cc" fill-rule="nonzero" group-id="1,2,6,14,22,27,47,63" node-id="660" stroke="none" target-height="0.95539856" target-width="1.6492996" target-x="83.9688" target-y="58.6719"/><path d="M 76.23 57.74 L 75.38 58.23 L 77.80 59.63 L 78.65 59.13 Z" fill="#83a1cc" fill-rule="nonzero" group-id="1,2,6,14,22,27,47,63" node-id="662" stroke="none" target-height="1.8895988" target-width="3.2686996" target-x="75.3822" target-y="57.7363"/><path d="M 82.62 58.74 L 81.77 59.24 L 82.57 59.70 L 83.42 59.20 Z" fill="#83a1cc" fill-rule="nonzero" group-id="1,2,6,14,22,27,47,63" node-id="664" stroke="none" target-height="0.95470047" target-width="1.6492996" target-x="81.7695" target-y="58.7425"/><path d="M 80.42 58.81 L 79.57 59.31 L 80.37 59.77 L 81.22 59.27 Z" fill="#83a1cc" fill-rule="nonzero" group-id="1,2,6,14,22,27,47,63" node-id="666" stroke="none" target-height="0.95470047" target-width="1.6485977" target-x="79.5709" target-y="58.8138"/><path d="M 85.81 60.23 L 86.66 59.73 L 85.86 59.27 L 85.01 59.77 Z" fill="#83a1cc" fill-rule="nonzero" group-id="1,2,6,14,22,27,47,63" node-id="668" stroke="none" target-height="0.95470047" target-width="1.6485977" target-x="85.0117" target-y="59.2742"/><path d="M 83.66 59.34 L 82.81 59.84 L 83.61 60.30 L 84.46 59.80 Z" fill="#83a1cc" fill-rule="nonzero" group-id="1,2,6,14,22,27,47,63" node-id="670" stroke="none" target-height="0.95539856" target-width="1.6492996" target-x="82.8118" target-y="59.3441"/><path d="M 81.46 59.42 L 80.61 59.91 L 81.41 60.37 L 82.26 59.88 Z" fill="#83a1cc" fill-rule="nonzero" group-id="1,2,6,14,22,27,47,63" node-id="672" stroke="none" target-height="0.95470047" target-width="1.6485977" target-x="80.6125" target-y="59.4151"/><path d="M 83.30 60.48 L 82.51 60.02 L 81.66 60.51 L 82.45 60.97 Z" fill="#83a1cc" fill-rule="nonzero" group-id="1,2,6,14,22,27,47,63" node-id="674" stroke="none" target-height="0.95470047" target-width="1.647995" target-x="81.6554" target-y="60.017"/><path d="M 80.31 60.09 L 79.45 60.58 L 80.25 61.04 L 81.10 60.55 Z" fill="#83a1cc" fill-rule="nonzero" group-id="1,2,6,14,22,27,47,63" node-id="676" stroke="none" target-height="0.95470047" target-width="1.6492996" target-x="79.4548" target-y="60.0876"/><path d="M 83.49 61.57 L 85.50 60.41 L 84.71 59.95 L 82.70 61.11 Z" fill="#83a1cc" fill-rule="nonzero" group-id="1,2,6,14,22,27,47,63" node-id="678" stroke="none" target-height="1.6268997" target-width="2.805603" target-x="82.6977" target-y="59.9464"/><path d="M 82.15 61.15 L 81.35 60.69 L 80.50 61.18 L 81.29 61.64 Z" fill="#83a1cc" fill-rule="nonzero" group-id="1,2,6,14,22,27,47,63" node-id="680" stroke="none" target-height="0.95539856" target-width="1.6486969" target-x="80.4977" target-y="60.6892"/><path d="M 78.11 60.16 L 77.26 60.65 L 79.09 61.71 L 79.95 61.22 Z" fill="#83a1cc" fill-rule="nonzero" group-id="1,2,6,14,22,27,47,63" node-id="682" stroke="none" target-height="1.5562019" target-width="2.6902008" target-x="77.2569" target-y="60.1583"/><path d="M 80.19 61.36 L 79.34 61.86 L 80.14 62.32 L 80.99 61.82 Z" fill="#83a1cc" fill-rule="nonzero" group-id="1,2,6,14,22,27,47,63" node-id="684" stroke="none" target-height="0.95539856" target-width="1.6492996" target-x="79.3407" target-y="61.3614"/><path d="M 81.22 62.90 L 83.19 61.75 L 82.39 61.29 L 80.42 62.44 Z" fill="#83a1cc" fill-rule="nonzero" group-id="1,2,6,14,22,27,47,63" node-id="686" stroke="none" target-height="1.6041031" target-width="2.7661972" target-x="80.4231" target-y="61.2912"/><path d="M 68.53 48.92 L 68.98 48.66 L 68.07 48.13 L 67.62 48.39 Z" fill="#83a1cc" fill-rule="nonzero" group-id="1,2,6,14,22,27,47,63" node-id="688" stroke="none" target-height="0.78419876" target-width="1.3559952" target-x="67.6192" target-y="48.1332"/><path d="M 69.74 49.61 L 70.18 49.35 L 69.27 48.83 L 68.83 49.09 Z" fill="#83a1cc" fill-rule="nonzero" group-id="1,2,6,14,22,27,47,63" node-id="690" stroke="none" target-height="0.7846031" target-width="1.3566055" target-x="68.8258" target-y="48.8295"/><path d="M 60.28 49.86 L 59.42 50.36 L 60.65 51.07 L 61.51 50.57 Z" fill="#83a1cc" fill-rule="nonzero" group-id="1,2,6,14,22,27,47,63" node-id="692" stroke="none" target-height="1.2038994" target-width="2.0805016" target-x="59.425" target-y="49.8633"/><path d="M 63.87 50.60 L 61.43 49.19 L 60.58 49.69 L 63.02 51.09 Z" fill="#83a1cc" fill-rule="nonzero" group-id="1,2,6,14,22,27,47,63" node-id="694" stroke="none" target-height="1.9007988" target-width="3.2876968" target-x="60.5814" target-y="49.1911"/><path d="M 61.80 50.74 L 60.95 51.24 L 61.86 51.76 L 62.71 51.27 Z" fill="#83a1cc" fill-rule="nonzero" group-id="1,2,6,14,22,27,47,63" node-id="696" stroke="none" target-height="1.0201988" target-width="1.7626991" target-x="60.9501" target-y="50.7439"/><path d="M 64.22 51.79 L 65.08 51.29 L 64.17 50.77 L 63.31 51.26 Z" fill="#83a1cc" fill-rule="nonzero" group-id="1,2,6,14,22,27,47,63" node-id="698" stroke="none" target-height="1.0198021" target-width="1.7613983" target-x="63.3143" target-y="50.7684"/><path d="M 63.01 51.44 L 62.16 51.94 L 63.07 52.46 L 63.92 51.97 Z" fill="#83a1cc" fill-rule="nonzero" group-id="1,2,6,14,22,27,47,63" node-id="700" stroke="none" target-height="1.0198975" target-width="1.7614021" target-x="62.1573" target-y="51.4406"/><path d="M 64.77 50.76 L 65.62 50.27 L 64.71 49.74 L 63.86 50.24 Z" fill="#83a1cc" fill-rule="nonzero" group-id="1,2,6,14,22,27,47,63" node-id="702" stroke="none" target-height="1.0191994" target-width="1.760601" target-x="63.8589" target-y="49.7424"/><path d="M 65.63 49.92 L 66.48 49.42 L 65.57 48.90 L 64.72 49.40 Z" fill="#83a1cc" fill-rule="nonzero" group-id="1,2,6,14,22,27,47,63" node-id="704" stroke="none" target-height="1.0198021" target-width="1.7612991" target-x="64.7219" target-y="48.8998"/><path d="M 66.84 50.62 L 67.69 50.12 L 66.78 49.60 L 65.93 50.09 Z" fill="#83a1cc" fill-rule="nonzero" group-id="1,2,6,14,22,27,47,63" node-id="706" stroke="none" target-height="1.0197983" target-width="1.7605972" target-x="65.9292" target-y="49.5968"/><path d="M 69.25 52.01 L 70.10 51.51 L 69.19 50.99 L 68.34 51.49 Z" fill="#83a1cc" fill-rule="nonzero" group-id="1,2,6,14,22,27,47,63" node-id="708" stroke="none" target-height="1.0197983" target-width="1.7606964" target-x="68.3423" target-y="50.9901"/><path d="M 68.58 50.28 L 69.43 49.79 L 68.53 49.26 L 67.67 49.76 Z" fill="#83a1cc" fill-rule="nonzero" group-id="1,2,6,14,22,27,47,63" node-id="710" stroke="none" target-height="1.0206032" target-width="1.762001" target-x="67.6728" target-y="49.2637"/><path d="M 69.79 50.98 L 70.64 50.49 L 69.73 49.96 L 68.88 50.46 Z" fill="#83a1cc" fill-rule="nonzero" group-id="1,2,6,14,22,27,47,63" node-id="712" stroke="none" target-height="1.0205002" target-width="1.762001" target-x="68.8801" target-y="49.9604"/><path d="M 68.04 51.31 L 68.90 50.82 L 67.99 50.29 L 67.14 50.79 Z" fill="#83a1cc" fill-rule="nonzero" group-id="1,2,6,14,22,27,47,63" node-id="714" stroke="none" target-height="1.0205002" target-width="1.762001" target-x="67.1351" target-y="50.2931"/><path d="M 67.38 49.59 L 68.23 49.09 L 67.32 48.57 L 66.47 49.06 Z" fill="#83a1cc" fill-rule="nonzero" group-id="1,2,6,14,22,27,47,63" node-id="716" stroke="none" target-height="1.0197983" target-width="1.7613983" target-x="66.4669" target-y="48.5671"/><path d="M 67.32 48.22 L 67.77 47.96 L 66.86 47.44 L 66.41 47.70 Z" fill="#83a1cc" fill-rule="nonzero" group-id="1,2,6,14,22,27,47,63" node-id="718" stroke="none" target-height="0.78419876" target-width="1.3553009" target-x="66.4126" target-y="47.4366"/><path d="M 66.17 48.89 L 67.02 48.40 L 66.11 47.87 L 65.26 48.37 Z" fill="#83a1cc" fill-rule="nonzero" group-id="1,2,6,14,22,27,47,63" node-id="720" stroke="none" target-height="1.0199013" target-width="1.7613068" target-x="65.2597" target-y="47.8704"/><path d="M 65.65 46.74 L 65.21 47.00 L 66.11 47.52 L 66.56 47.26 Z" fill="#83a1cc" fill-rule="nonzero" group-id="1,2,6,14,22,27,47,63" node-id="722" stroke="none" target-height="0.78429794" target-width="1.3559036" target-x="65.2054" target-y="46.7392"/><path d="M 64.91 47.17 L 64.05 47.67 L 64.96 48.19 L 65.81 47.70 Z" fill="#83a1cc" fill-rule="nonzero" group-id="1,2,6,14,22,27,47,63" node-id="724" stroke="none" target-height="1.0197983" target-width="1.7612991" target-x="64.0531" target-y="47.1738"/><path d="M 78.91 57.58 L 79.76 57.09 L 78.85 56.56 L 78.00 57.06 Z" fill="#83a1cc" fill-rule="nonzero" group-id="1,2,6,14,22,27,47,63" node-id="726" stroke="none" target-height="1.0199013" target-width="1.7612991" target-x="77.997" target-y="56.5643"/><path d="M 70.94 50.31 L 71.39 50.05 L 70.48 49.53 L 70.03 49.79 Z" fill="#83a1cc" fill-rule="nonzero" group-id="1,2,6,14,22,27,47,63" node-id="728" stroke="none" target-height="0.7845993" target-width="1.3565979" target-x="70.0324" target-y="49.5265"/><path d="M 78.18 54.49 L 78.63 54.23 L 77.72 53.71 L 77.27 53.97 Z" fill="#83a1cc" fill-rule="nonzero" group-id="1,2,6,14,22,27,47,63" node-id="730" stroke="none" target-height="0.78490067" target-width="1.3565979" target-x="77.2739" target-y="53.7071"/><path d="M 80.60 55.88 L 81.04 55.63 L 80.13 55.10 L 79.69 55.36 Z" fill="#83a1cc" fill-rule="nonzero" group-id="1,2,6,14,22,27,47,63" node-id="732" stroke="none" target-height="0.78429794" target-width="1.3560028" target-x="79.6877" target-y="55.1007"/><path d="M 79.39 55.19 L 79.84 54.93 L 78.93 54.40 L 78.48 54.66 Z" fill="#83a1cc" fill-rule="nonzero" group-id="1,2,6,14,22,27,47,63" node-id="734" stroke="none" target-height="0.78419876" target-width="1.3560028" target-x="78.4804" target-y="54.4038"/><path d="M 62.59 48.52 L 61.74 49.01 L 63.56 50.06 L 64.41 49.57 Z" fill="#83a1cc" fill-rule="nonzero" group-id="1,2,6,14,22,27,47,63" node-id="736" stroke="none" target-height="1.5464973" target-width="2.6731987" target-x="61.7391" target-y="48.5185"/><path d="M 63.75 47.85 L 62.90 48.34 L 64.42 49.22 L 65.28 48.73 Z" fill="#83a1cc" fill-rule="nonzero" group-id="1,2,6,14,22,27,47,63" node-id="738" stroke="none" target-height="1.3769989" target-width="2.379902" target-x="62.8961" target-y="47.846"/><path d="M 71.41 54.95 L 70.56 55.44 L 71.46 55.97 L 72.32 55.47 Z" fill="#83a1cc" fill-rule="nonzero" group-id="1,2,6,14,22,27,47,63" node-id="740" stroke="none" target-height="1.0197983" target-width="1.7612991" target-x="70.5552" target-y="54.949"/><path d="M 71.95 53.92 L 71.10 54.42 L 72.01 54.94 L 72.86 54.45 Z" fill="#83a1cc" fill-rule="nonzero" group-id="1,2,6,14,22,27,47,63" node-id="742" stroke="none" target-height="1.0195007" target-width="1.7606964" target-x="71.1004" target-y="53.923"/><path d="M 65.37 51.47 L 64.52 51.96 L 65.43 52.49 L 66.28 51.99 Z" fill="#83a1cc" fill-rule="nonzero" group-id="1,2,6,14,22,27,47,63" node-id="744" stroke="none" target-height="1.0197983" target-width="1.7613068" target-x="64.5209" target-y="51.4654"/><path d="M 67.12 51.14 L 66.27 51.63 L 67.18 52.16 L 68.03 51.66 Z" fill="#83a1cc" fill-rule="nonzero" group-id="1,2,6,14,22,27,47,63" node-id="746" stroke="none" target-height="1.0199013" target-width="1.7612991" target-x="66.2721" target-y="51.1357"/><path d="M 65.98 51.46 L 66.83 50.96 L 65.92 50.44 L 65.07 50.93 Z" fill="#83a1cc" fill-rule="nonzero" group-id="1,2,6,14,22,27,47,63" node-id="748" stroke="none" target-height="1.0198021" target-width="1.7612991" target-x="65.0655" target-y="50.4391"/><path d="M 66.58 52.16 L 65.73 52.66 L 66.64 53.18 L 67.49 52.69 Z" fill="#83a1cc" fill-rule="nonzero" group-id="1,2,6,14,22,27,47,63" node-id="750" stroke="none" target-height="1.0198021" target-width="1.7612991" target-x="65.7282" target-y="52.1624"/><path d="M 72.66 57.02 L 71.81 57.51 L 73.03 58.21 L 73.88 57.72 Z" fill="#83a1cc" fill-rule="nonzero" group-id="1,2,6,14,22,27,47,63" node-id="752" stroke="none" target-height="1.1969986" target-width="2.0681992" target-x="71.8127" target-y="57.0152"/><path d="M 73.63 58.19 L 73.31 58.38 L 74.27 58.93 L 74.59 58.74 Z" fill="#83a1cc" fill-rule="nonzero" group-id="1,2,6,14,22,27,47,63" node-id="754" stroke="none" target-height="0.73610306" target-width="1.2731018" target-x="73.3126" target-y="58.1905"/></g><g node-id="1426"><g node-id="1475"><g node-id="1491"><path d="M 88.08 40.63 L 70.17 30.22 L 70.16 22.31 C 70.16 22.03 70.05 21.83 69.89 21.74 L 87.80 32.14 C 87.96 32.24 88.06 32.44 88.06 32.72 L 88.08 40.63 Z" fill="#dee7f8" fill-rule="nonzero" group-id="1,2,6,14,22,27,47,64,113,129" node-id="763" stroke="none" target-height="18.891798" target-width="18.1958" target-x="69.8873" target-y="21.7371"/></g><g node-id="1492"><path d="M 87.99 31.80 C 87.77 31.68 87.48 31.70 87.14 31.89 C 86.50 32.26 85.97 33.18 85.97 33.93 L 86.02 54.09 L 68.11 43.69 L 68.07 23.52 C 68.07 22.77 68.59 21.86 69.24 21.49 C 69.57 21.29 69.87 21.28 70.08 21.40 L 87.99 31.80 Z" fill="#dee7f8" fill-rule="nonzero" group-id="1,2,6,14,22,27,47,64,113,130" node-id="768" stroke="none" target-height="32.8166" target-width="19.920204" target-x="68.0656" target-y="21.278"/></g><path d="M 87.15 31.89 C 87.80 31.51 88.33 31.82 88.33 32.57 L 88.35 40.78 L 88.08 40.63 L 88.06 32.72 C 88.06 32.15 87.65 31.91 87.15 32.20 C 86.65 32.49 86.24 33.20 86.24 33.77 L 86.29 53.93 L 86.02 54.09 L 85.97 33.93 C 85.97 33.18 86.50 32.27 87.15 31.89 Z" fill="#83a1cc" fill-rule="nonzero" group-id="1,2,6,14,22,27,47,64,113,131" node-id="773" stroke="none" target-height="22.578398" target-width="2.3853989" target-x="85.9673" target-y="31.5132"/></g></g></g><g node-id="1410"><g node-id="1427"><path d="M 70.43 37.75 L 69.84 38.61 L 69.35 37.76 L 69.79 38.21 Z" fill="#4c4a8b" fill-rule="nonzero" group-id="1,2,6,14,22,27,48,65" node-id="783" stroke="none" target-height="0.86249924" target-width="1.0769958" target-x="69.3523" target-y="37.749"/></g><g node-id="1428"><path d="M 70.42 40.53 L 69.83 41.40 L 69.34 40.55 L 69.78 41.00 Z" fill="#4c4a8b" fill-rule="nonzero" group-id="1,2,6,14,22,27,48,66" node-id="788" stroke="none" target-height="0.8647995" target-width="1.0769043" target-x="69.3445" target-y="40.5336"/></g><g node-id="1429"><path d="M 69.06 39.40 L 70.71 40.35 L 70.71 42.25 L 69.05 41.30 L 69.06 39.40 Z M 70.57 42.01 L 70.57 40.43 L 69.20 39.64 L 69.19 41.22 L 70.57 42.01" fill="#9eb5df" fill-rule="nonzero" group-id="1,2,6,14,22,27,48,67" node-id="793" stroke="none" target-height="2.8563004" target-width="1.6613007" target-x="69.0505" target-y="39.3957"/></g><g node-id="1430"><path d="M 69.06 36.61 L 70.72 37.56 L 70.71 39.47 L 69.06 38.51 L 69.06 36.61 Z M 70.57 39.22 L 70.58 37.65 L 69.20 36.85 L 69.20 38.43 L 70.57 39.22" fill="#9eb5df" fill-rule="nonzero" group-id="1,2,6,14,22,27,48,68" node-id="798" stroke="none" target-height="2.8586998" target-width="1.6613007" target-x="69.0584" target-y="36.6087"/></g><g node-id="1431"><path d="M 69.07 33.82 L 70.73 34.78 L 70.72 36.68 L 69.07 35.72 L 69.07 33.82 Z M 70.58 36.44 L 70.59 34.86 L 69.21 34.07 L 69.21 35.64 L 70.58 36.44" fill="#9eb5df" fill-rule="nonzero" group-id="1,2,6,14,22,27,48,69" node-id="803" stroke="none" target-height="2.8563004" target-width="1.6613007" target-x="69.0663" target-y="33.8243"/></g><g node-id="1432"><path d="M 69.08 31.04 L 70.74 31.99 L 70.73 33.90 L 69.07 32.94 L 69.08 31.04 Z M 70.59 33.65 L 70.59 32.07 L 69.22 31.28 L 69.22 32.86 L 70.59 33.65" fill="#9eb5df" fill-rule="nonzero" group-id="1,2,6,14,22,27,48,70" node-id="808" stroke="none" target-height="2.8586998" target-width="1.6613998" target-x="69.0741" target-y="31.0374"/></g><g node-id="1433"><path d="M 70.45 32.18 L 69.86 33.04 L 69.37 32.19 L 69.80 32.64 Z" fill="#4c4a8b" fill-rule="nonzero" group-id="1,2,6,14,22,27,48,71" node-id="813" stroke="none" target-height="0.86240005" target-width="1.0769958" target-x="69.3681" target-y="32.1777"/></g><g node-id="1434"><path d="M 77.48 31.68 L 77.47 31.96 L 69.09 27.12 L 69.09 26.84 Z" fill="#9eb5df" fill-rule="nonzero" group-id="1,2,6,14,22,27,48,72" node-id="818" stroke="none" target-height="5.1282005" target-width="8.384705" target-x="69.0907" target-y="26.8358"/></g><g node-id="1435"><path d="M 75.19 32.78 L 75.19 32.98 L 71.50 30.86 L 71.50 30.65 Z" fill="#9eb5df" fill-rule="nonzero" group-id="1,2,6,14,22,27,48,73" node-id="823" stroke="none" target-height="2.3292007" target-width="3.6837006" target-x="71.5032" target-y="30.654"/></g><g node-id="1436"><path d="M 75.17 38.35 L 75.17 38.55 L 71.49 36.43 L 71.49 36.23 Z" fill="#9eb5df" fill-rule="nonzero" group-id="1,2,6,14,22,27,48,74" node-id="828" stroke="none" target-height="2.3292007" target-width="3.6837006" target-x="71.4874" target-y="36.2254"/></g><g node-id="1437"><path d="M 76.30 41.16 L 76.30 41.37 L 71.48 38.59 L 71.48 38.38 Z" fill="#9eb5df" fill-rule="nonzero" group-id="1,2,6,14,22,27,48,75" node-id="833" stroke="none" target-height="2.9854965" target-width="4.8162994" target-x="71.4813" target-y="38.3827"/></g><g node-id="1438"><path d="M 76.31 38.38 L 76.30 38.58 L 71.49 35.80 L 71.49 35.60 Z" fill="#9eb5df" fill-rule="nonzero" group-id="1,2,6,14,22,27,48,76" node-id="838" stroke="none" target-height="2.983097" target-width="4.8162994" target-x="71.4892" target-y="35.5982"/></g><g node-id="1439"><path d="M 75.18 35.56 L 75.18 35.77 L 71.50 33.64 L 71.50 33.44 Z" fill="#9eb5df" fill-rule="nonzero" group-id="1,2,6,14,22,27,48,77" node-id="843" stroke="none" target-height="2.3316002" target-width="3.6837006" target-x="71.4953" target-y="33.4385"/></g><g node-id="1440"><path d="M 76.31 35.59 L 76.31 35.80 L 71.50 33.02 L 71.50 32.81 Z" fill="#9eb5df" fill-rule="nonzero" group-id="1,2,6,14,22,27,48,78" node-id="848" stroke="none" target-height="2.9855003" target-width="4.8162994" target-x="71.4971" target-y="32.8113"/></g><g node-id="1441"><path d="M 76.32 32.81 L 76.32 33.01 L 71.50 30.23 L 71.51 30.03 Z" fill="#9eb5df" fill-rule="nonzero" group-id="1,2,6,14,22,27,48,79" node-id="853" stroke="none" target-height="2.983099" target-width="4.8162994" target-x="71.505" target-y="30.0268"/></g><g node-id="1442"><path d="M 70.45 29.39 L 69.86 30.26 L 69.38 29.41 L 69.81 29.85 Z" fill="#4c4a8b" fill-rule="nonzero" group-id="1,2,6,14,22,27,48,80" node-id="858" stroke="none" target-height="0.8647995" target-width="1.0770035" target-x="69.376" target-y="29.3908"/></g><g node-id="1443"><path d="M 69.09 28.25 L 70.74 29.21 L 70.74 31.11 L 69.08 30.15 L 69.09 28.25 Z M 70.60 30.86 L 70.60 29.29 L 69.23 28.50 L 69.22 30.07 L 70.60 30.86" fill="#9eb5df" fill-rule="nonzero" group-id="1,2,6,14,22,27,48,81" node-id="863" stroke="none" target-height="2.8563004" target-width="1.6613007" target-x="69.0821" target-y="28.2529"/></g><g node-id="1444"><path d="M 80.27 32.29 L 80.27 32.58 L 69.09 26.12 L 69.09 25.83 Z" fill="#9eb5df" fill-rule="nonzero" group-id="1,2,6,14,22,27,48,82" node-id="868" stroke="none" target-height="6.745098" target-width="11.181404" target-x="69.0935" target-y="25.8339"/></g><g node-id="1445"><path d="M 77.71 33.23 L 79.37 34.19 L 79.36 36.09 L 77.71 35.13 L 77.71 33.23 Z M 79.22 35.84 L 79.23 34.27 L 77.85 33.48 L 77.85 35.05 L 79.22 35.84" fill="#9eb5df" fill-rule="nonzero" group-id="1,2,6,14,22,27,48,83" node-id="873" stroke="none" target-height="2.8563004" target-width="1.6613007" target-x="77.7081" target-y="33.2331"/></g><g node-id="1446"><path d="M 79.08 34.37 L 78.49 35.24 L 78.00 34.39 L 78.44 34.83 Z" fill="#4c4a8b" fill-rule="nonzero" group-id="1,2,6,14,22,27,48,84" node-id="878" stroke="none" target-height="0.8647995" target-width="1.0791016" target-x="78" target-y="34.3711"/></g><g node-id="1447"><path d="M 84.96 33.99 L 84.96 34.28 L 69.10 25.12 L 69.10 24.83 Z" fill="#9eb5df" fill-rule="nonzero" group-id="1,2,6,14,22,27,48,85" node-id="883" stroke="none" target-height="9.447298" target-width="15.861801" target-x="69.0963" target-y="24.8318"/></g><g node-id="1448"><path d="M 79.06 42.73 L 78.47 43.59 L 77.98 42.74 L 78.41 43.19 Z" fill="#4c4a8b" fill-rule="nonzero" group-id="1,2,6,14,22,27,48,86" node-id="888" stroke="none" target-height="0.86250305" target-width="1.0790939" target-x="77.9763" target-y="42.7292"/></g><g node-id="1449"><path d="M 77.69 41.59 L 79.35 42.55 L 79.34 44.45 L 77.68 43.49 L 77.69 41.59 Z M 79.20 44.20 L 79.20 42.63 L 77.83 41.83 L 77.83 43.41 L 79.20 44.20" fill="#9eb5df" fill-rule="nonzero" group-id="1,2,6,14,22,27,48,87" node-id="893" stroke="none" target-height="2.8586998" target-width="1.6613007" target-x="77.6844" target-y="41.589"/></g><g node-id="1450"><path d="M 75.16 43.92 L 75.15 44.13 L 71.47 42.00 L 71.47 41.80 Z" fill="#9eb5df" fill-rule="nonzero" group-id="1,2,6,14,22,27,48,88" node-id="898" stroke="none" target-height="2.3291016" target-width="3.683693" target-x="71.4716" target-y="41.7968"/></g><g node-id="1451"><path d="M 76.29 43.95 L 76.29 44.16 L 71.47 41.37 L 71.47 41.17 Z" fill="#9eb5df" fill-rule="nonzero" group-id="1,2,6,14,22,27,48,89" node-id="903" stroke="none" target-height="2.9853973" target-width="4.816307" target-x="71.4734" target-y="41.1696"/></g><g node-id="1452"><path d="M 77.68 44.38 L 79.34 45.33 L 79.33 47.23 L 77.68 46.28 L 77.68 44.38 Z M 79.19 46.99 L 79.20 45.41 L 77.82 44.62 L 77.82 46.20 L 79.19 46.99" fill="#9eb5df" fill-rule="nonzero" group-id="1,2,6,14,22,27,48,90" node-id="908" stroke="none" target-height="2.8563004" target-width="1.6613007" target-x="77.6765" target-y="44.3759"/></g><g node-id="1453"><path d="M 79.05 45.51 L 78.46 46.38 L 77.97 45.53 L 78.40 45.98 Z" fill="#4c4a8b" fill-rule="nonzero" group-id="1,2,6,14,22,27,48,91" node-id="913" stroke="none" target-height="0.8647995" target-width="1.0791016" target-x="77.9684" target-y="45.5138"/></g><g node-id="1454"><path d="M 83.81 40.55 L 83.80 40.75 L 80.12 38.62 L 80.12 38.42 Z" fill="#9eb5df" fill-rule="nonzero" group-id="1,2,6,14,22,27,48,92" node-id="918" stroke="none" target-height="2.3316002" target-width="3.6837006" target-x="80.1213" target-y="38.4187"/></g><g node-id="1455"><g node-id="1476"><path d="M 84.91 51.59 L 84.91 51.88 L 69.05 42.72 L 69.05 42.43 Z" fill="#9eb5df" fill-rule="nonzero" group-id="1,2,6,14,22,27,48,93,114" node-id="925" stroke="none" target-height="9.445" target-width="15.861702" target-x="69.0465" target-y="42.4324"/></g><g node-id="1477"><path d="M 83.78 48.90 L 83.78 49.11 L 80.10 46.98 L 80.10 46.78 Z" fill="#9eb5df" fill-rule="nonzero" group-id="1,2,6,14,22,27,48,93,115" node-id="930" stroke="none" target-height="2.3292007" target-width="3.6837006" target-x="80.0976" target-y="46.777"/></g><g node-id="1478"><path d="M 84.92 48.93 L 84.92 49.14 L 80.10 46.35 L 80.10 46.15 Z" fill="#9eb5df" fill-rule="nonzero" group-id="1,2,6,14,22,27,48,93,116" node-id="935" stroke="none" target-height="2.9854012" target-width="4.8162994" target-x="80.0994" target-y="46.1498"/></g><g node-id="1479"><path d="M 83.79 46.12 L 83.79 46.32 L 80.11 44.20 L 80.11 43.99 Z" fill="#9eb5df" fill-rule="nonzero" group-id="1,2,6,14,22,27,48,93,117" node-id="940" stroke="none" target-height="2.3316002" target-width="3.6837006" target-x="80.1055" target-y="43.9901"/></g><g node-id="1480"><path d="M 84.92 46.14 L 84.92 46.35 L 80.11 43.57 L 80.11 43.36 Z" fill="#9eb5df" fill-rule="nonzero" group-id="1,2,6,14,22,27,48,93,118" node-id="945" stroke="none" target-height="2.9855995" target-width="4.8162994" target-x="80.1073" target-y="43.3629"/></g><g node-id="1481"><path d="M 83.80 43.33 L 83.80 43.53 L 80.11 41.41 L 80.11 41.21 Z" fill="#9eb5df" fill-rule="nonzero" group-id="1,2,6,14,22,27,48,93,119" node-id="950" stroke="none" target-height="2.3292007" target-width="3.683693" target-x="80.1134" target-y="41.2056"/></g><path d="M 84.93 43.36 L 84.93 43.56 L 80.12 40.78 L 80.12 40.58 Z" fill="#9eb5df" fill-rule="nonzero" group-id="1,2,6,14,22,27,48,93,120" node-id="955" stroke="none" target-height="2.9832" target-width="4.816307" target-x="80.1152" target-y="40.5784"/></g><g node-id="1456"><path d="M 84.95 37.79 L 84.95 37.99 L 80.13 35.21 L 80.13 35.01 Z" fill="#9eb5df" fill-rule="nonzero" group-id="1,2,6,14,22,27,48,94" node-id="961" stroke="none" target-height="2.983101" target-width="4.816307" target-x="80.131" target-y="35.0071"/></g><g node-id="1457"><path d="M 84.94 40.57 L 84.94 40.78 L 80.12 38.00 L 80.12 37.79 Z" fill="#9eb5df" fill-rule="nonzero" group-id="1,2,6,14,22,27,48,95" node-id="966" stroke="none" target-height="2.9855995" target-width="4.8162994" target-x="80.1231" target-y="37.7915"/></g><g node-id="1458"><path d="M 83.81 37.76 L 83.81 37.96 L 80.13 35.84 L 80.13 35.63 Z" fill="#9eb5df" fill-rule="nonzero" group-id="1,2,6,14,22,27,48,96" node-id="971" stroke="none" target-height="2.3292007" target-width="3.683693" target-x="80.1292" target-y="35.6342"/></g><g node-id="1459"><path d="M 79.07 37.16 L 78.48 38.02 L 77.99 37.17 L 78.43 37.62 Z" fill="#4c4a8b" fill-rule="nonzero" group-id="1,2,6,14,22,27,48,97" node-id="976" stroke="none" target-height="0.8623009" target-width="1.0790939" target-x="77.9921" target-y="37.158"/></g><g node-id="1460"><path d="M 79.06 39.94 L 78.48 40.81 L 77.98 39.96 L 78.42 40.41 Z" fill="#4c4a8b" fill-rule="nonzero" group-id="1,2,6,14,22,27,48,98" node-id="981" stroke="none" target-height="0.8647003" target-width="1.0791016" target-x="77.9842" target-y="39.9425"/></g><g node-id="1461"><path d="M 77.70 38.80 L 79.35 39.76 L 79.35 41.66 L 77.69 40.70 L 77.70 38.80 Z M 79.21 41.42 L 79.21 39.84 L 77.84 39.05 L 77.83 40.62 L 79.21 41.42" fill="#9eb5df" fill-rule="nonzero" group-id="1,2,6,14,22,27,48,99" node-id="986" stroke="none" target-height="2.8563004" target-width="1.6613007" target-x="77.6923" target-y="38.8045"/></g><g node-id="1462"><path d="M 77.71 36.02 L 79.36 36.97 L 79.36 38.88 L 77.70 37.92 L 77.71 36.02 Z M 79.22 38.63 L 79.22 37.05 L 77.85 36.26 L 77.84 37.84 L 79.22 38.63" fill="#9eb5df" fill-rule="nonzero" group-id="1,2,6,14,22,27,48,100" node-id="991" stroke="none" target-height="2.8586998" target-width="1.6613007" target-x="77.7002" target-y="36.0176"/></g><g node-id="1463"><path d="M 70.44 34.96 L 69.85 35.83 L 69.36 34.98 L 69.79 35.42 Z" fill="#4c4a8b" fill-rule="nonzero" group-id="1,2,6,14,22,27,48,101" node-id="996" stroke="none" target-height="0.8647995" target-width="1.0770035" target-x="69.3602" target-y="34.9622"/></g><path d="M 75.16 41.14 L 75.16 41.34 L 71.48 39.22 L 71.48 39.01 Z" fill="#9eb5df" fill-rule="nonzero" group-id="1,2,6,14,22,27,48,102" node-id="1001" stroke="none" target-height="2.3316994" target-width="3.6837006" target-x="71.4795" target-y="39.0098"/></g></g><g node-id="1390"><path d="M 60.07 48.44 C 59.66 48.51 58.49 48.45 58.49 47.84 C 58.49 47.84 58.60 47.63 59.10 47.72 C 59.60 47.81 59.87 47.36 59.14 47.20 C 58.67 47.11 58.01 47.32 57.59 47.48 C 57.31 47.59 56.97 47.91 55.43 47.57 C 54.56 47.37 53.60 47.66 52.72 47.68 C 51.87 47.72 50.07 45.78 48.74 44.95 L 48.46 46.40 C 49.36 46.86 46.66 46.66 46.93 47.20 C 47.45 48.23 51.45 49.53 52.47 49.38 C 53.53 49.23 55.94 48.97 56.82 48.87 C 57.12 48.84 57.42 48.91 57.70 49.05 C 58.44 49.45 60.02 50.10 60.40 48.62 C 60.40 48.62 60.49 48.36 60.07 48.44 Z" fill="#ecb4bf" fill-rule="nonzero" group-id="1,2,6,14,22,28" node-id="1008" stroke="none" target-height="5.1429977" target-width="13.830097" target-x="46.6593" target-y="44.955"/><g node-id="1411"><g node-id="1465"><g node-id="1483"><g node-id="1494"><g node-id="1500"><g node-id="1507"><g node-id="1513"><g node-id="1518"><path d="M 49.05 39.77 C 49.05 39.77 46.34 40.10 46.27 40.27 C 46.25 40.33 45.09 43.39 44.91 44.11 C 44.61 45.29 47.81 45.73 47.64 44.82 C 47.53 44.22 47.33 43.75 47.70 43.57 C 47.95 43.45 48.01 43.64 48.29 43.54 C 49.59 43.07 49.05 39.77 49.05 39.77 Z" fill="#ecb4bf" fill-rule="nonzero" group-id="1,2,6,14,22,28,49,103,121,132,138,145,151,156" node-id="1026" stroke="none" target-height="5.956299" target-width="4.9862022" target-x="44.6055" target-y="39.7745"/></g><path d="M 45.53 43.54 C 45.14 43.40 44.99 43.28 44.94 43.08 C 44.94 43.08 42.26 43.16 43.34 46.21 C 43.88 47.75 45.92 51.16 46.45 52.92 L 45.53 43.54 Z" fill="#3a3a77" fill-rule="nonzero" group-id="1,2,6,14,22,28,49,103,121,132,138,145,151" node-id="1029" stroke="none" target-height="9.844101" target-width="4.1884003" target-x="42.2649" target-y="43.0784"/><path d="M 49.06 44.95 C 48.69 44.68 48.31 44.35 48.00 43.99 C 47.79 43.73 47.46 43.62 47.12 43.65 C 46.42 43.71 45.31 43.70 45.16 43.01 C 45.16 43.01 42.85 42.86 43.73 46.00 C 44.61 49.14 44.73 51.56 44.41 52.72 C 44.41 52.72 47.80 57.43 49.96 53.51 C 49.96 53.51 49.96 48.63 50.16 47.71 C 50.33 46.91 50.37 45.94 49.06 44.95 Z" fill="#4c4a8b" fill-rule="nonzero" group-id="1,2,6,14,22,28,49,103,121,132,138,145,151" node-id="1031" stroke="none" target-height="14.569801" target-width="7.5188026" target-x="42.8509" target-y="42.8589"/><path d="M 47.06 44.01 C 46.33 44.01 45.21 43.88 45.04 43.09 C 45.01 42.97 45.09 42.85 45.21 42.82 C 45.33 42.79 45.45 42.87 45.48 42.99 C 45.61 43.61 47.11 43.59 47.63 43.53 C 47.74 43.52 47.86 43.61 47.88 43.73 C 47.89 43.86 47.80 43.97 47.67 43.98 C 47.60 43.99 47.37 44.01 47.06 44.01 Z" fill="#3a3a77" fill-rule="nonzero" group-id="1,2,6,14,22,28,49,103,121,132,138,145,151,157" node-id="1035" stroke="none" target-height="1.2202988" target-width="2.8796997" target-x="45.0095" target-y="42.7938"/><path d="M 44.44 52.74 C 44.43 52.73 44.41 52.72 44.41 52.72 C 44.41 52.72 44.43 52.73 44.44 52.74 Z" fill="#73bc9c" fill-rule="nonzero" group-id="1,2,6,14,22,28,49,103,121,132,138,145,151,158" node-id="1040" stroke="none" target-height="0.015899658" target-width="0.029003143" target-x="44.4148" target-y="52.7247"/><path d="M 46.48 70.01 C 46.63 69.08 48.75 68.79 48.75 68.79 C 48.75 68.79 50.44 68.68 51.19 68.38 C 51.95 68.08 51.96 68.87 51.77 69.22 C 51.59 69.56 50.17 71.14 48.67 70.86 L 48.67 71.05 C 48.67 71.18 48.57 71.29 48.44 71.30 L 46.87 71.45 C 46.75 71.46 46.64 71.40 46.60 71.29 C 46.50 71.06 46.37 70.62 46.48 70.01 Z" fill="#2a2a5e" fill-rule="nonzero" group-id="1,2,6,14,22,28,49,103,121,132,138,145,151,158" node-id="1042" stroke="none" target-height="3.3756027" target-width="5.5850983" target-x="46.374" target-y="68.082"/><path d="M 43.59 68.03 C 43.74 67.11 45.86 66.82 45.86 66.82 C 45.86 66.82 47.55 66.71 48.31 66.41 C 49.06 66.11 49.07 66.90 48.89 67.25 C 48.70 67.59 47.28 69.17 45.78 68.89 L 45.79 69.07 C 45.79 69.21 45.69 69.32 45.55 69.33 L 43.98 69.48 C 43.87 69.49 43.76 69.42 43.71 69.32 C 43.61 69.09 43.49 68.65 43.59 68.03 Z" fill="#2a2a5e" fill-rule="nonzero" group-id="1,2,6,14,22,28,49,103,121,132,138,145,151,158" node-id="1044" stroke="none" target-height="3.375595" target-width="5.584999" target-x="43.4875" target-y="66.1107"/><path d="M 49.96 53.51 C 49.04 55.22 44.74 52.91 44.44 52.74 C 44.48 52.77 44.55 52.86 44.36 53.02 C 43.69 53.56 43.08 55.46 43.53 57.72 C 43.71 58.59 43.82 59.47 43.76 60.36 C 43.65 62.22 43.51 65.49 43.72 67.73 C 43.72 67.73 45.16 68.58 45.98 67.02 C 45.98 67.02 45.90 62.86 46.12 61.98 C 46.17 61.79 46.42 59.48 46.72 58.46 C 46.86 59.15 46.94 59.81 46.98 61.04 C 47.01 61.97 47.00 62.90 46.93 63.83 C 46.78 65.95 46.59 69.71 46.59 69.71 C 48.47 70.43 49.13 69.21 49.13 69.21 L 49.20 64.80 C 49.23 63.25 49.34 62.07 49.67 60.55 C 50.17 58.21 49.96 53.51 49.96 53.51 Z" fill="#3a3a77" fill-rule="nonzero" group-id="1,2,6,14,22,28,49,103,121,132,138,145,151,158" node-id="1046" stroke="none" target-height="17.688797" target-width="7.0839996" target-x="43.0841" target-y="52.7406"/></g></g></g></g></g><path d="M 49.33 54.33 C 49.65 54.23 49.88 54.05 50.06 53.82 C 50.01 53.63 49.96 53.37 49.96 53.15 C 49.83 53.36 49.42 53.71 49.17 53.78 C 47.71 54.21 44.68 52.55 44.55 52.48 L 44.47 52.43 C 44.45 52.53 44.44 52.64 44.41 52.72 C 44.41 52.72 44.43 52.84 44.36 53.02 C 44.75 53.23 47.00 54.42 48.64 54.42 C 48.90 54.42 49.13 54.39 49.33 54.33 Z" fill="#4c4a8b" fill-rule="nonzero" group-id="1,2,6,14,22,28,49,103,122" node-id="1056" stroke="none" target-height="1.9835014" target-width="5.7046013" target-x="44.3589" target-y="52.4328"/></g><g node-id="1466"><path d="M 45.47 42.44 C 45.47 42.44 45.47 42.43 45.47 42.41 C 45.44 42.42 45.45 42.43 45.47 42.44 Z" fill="#6262aa" fill-rule="nonzero" group-id="1,2,6,14,22,28,49,104" node-id="1062" stroke="none" target-height="0.03050232" target-width="0.023101807" target-x="45.4442" target-y="42.413"/><path d="M 49.45 39.43 C 49.03 38.90 48.38 38.81 48.01 38.78 C 44.23 38.42 44.71 40.93 45.07 41.31 C 45.39 41.64 45.45 42.27 45.47 42.41 C 45.74 42.62 46.18 42.84 46.89 42.82 C 47.66 41.99 47.19 41.84 47.50 41.53 C 47.81 41.22 48.03 41.79 48.03 41.79 C 48.69 41.39 48.15 40.66 48.15 40.66 C 49.69 40.16 49.86 39.97 49.45 39.43 Z" fill="#2a2a5e" fill-rule="nonzero" group-id="1,2,6,14,22,28,49,104" node-id="1064" stroke="none" target-height="4.419201" target-width="5.6251984" target-x="44.2337" target-y="38.4195"/></g></g><g node-id="1412"><g node-id="1467"><g node-id="1485"><g node-id="1495"><g node-id="1501"><g node-id="1508"><path d="M 68.06 43.13 L 69.24 41.54 C 69.27 41.50 69.28 41.44 69.25 41.40 C 69.23 41.36 69.18 41.33 69.13 41.34 L 67.16 41.57 L 68.06 43.13 Z" fill="#2a2a5e" fill-rule="nonzero" group-id="1,2,6,14,22,28,50,105,123,133,139,146" node-id="1080" stroke="none" target-height="1.7975998" target-width="2.1163025" target-x="67.1607" target-y="41.3319"/><g node-id="1514"><g node-id="1521"><path d="M 67.52 41.62 C 67.35 41.53 67.20 41.51 67.09 41.55 L 64.72 41.74 L 64.72 41.75 L 48.06 51.41 C 48.31 51.26 48.66 51.28 49.04 51.50 C 49.81 51.94 50.44 53.02 50.44 53.91 C 50.45 54.36 50.29 54.68 50.03 54.83 L 66.70 45.17 L 68.06 43.19 C 68.15 43.11 68.20 42.97 68.20 42.80 C 68.19 42.36 67.88 41.84 67.52 41.62 Z" fill="#6b9ef9" fill-rule="nonzero" group-id="1,2,6,14,22,28,50,105,123,133,139,146,152,159" node-id="1086" stroke="none" target-height="13.311001" target-width="20.135796" target-x="48.0623" target-y="41.5148"/><path d="M 47.65 52.32 C 47.65 53.21 48.28 54.29 49.05 54.73 C 49.82 55.17 50.44 54.80 50.44 53.91 C 50.44 53.02 49.81 51.94 49.04 51.50 C 48.27 51.06 47.65 51.42 47.65 52.32 Z" fill="#1e72c6" fill-rule="nonzero" group-id="1,2,6,14,22,28,50,105,123,133,139,146,152,159" node-id="1088" stroke="none" target-height="4.112198" target-width="2.7979012" target-x="47.6465" target-y="51.0572"/></g></g></g></g></g></g><g node-id="1486"><g node-id="1496"><g node-id="1502"><path d="M 49.73 49.06 L 55.76 45.59 C 55.82 45.56 55.88 45.55 55.92 45.58 L 56.37 45.83 C 56.33 45.81 56.27 45.81 56.21 45.84 L 50.19 49.32 C 50.07 49.39 49.97 49.57 49.96 49.71 L 49.96 50.58 L 49.50 50.57 L 49.51 49.46 C 49.51 49.31 49.61 49.13 49.73 49.06 Z" fill="#4c5671" fill-rule="nonzero" group-id="1,2,6,14,22,28,50,105,124,134,140" node-id="1102" stroke="none" target-height="5.032501" target-width="6.8698997" target-x="49.5048" target-y="45.5519"/></g><g node-id="1503"><path d="M 50.06 49.45 C 49.90 49.38 49.74 49.30 49.57 49.23 C 49.53 49.30 49.51 49.38 49.51 49.46 L 49.50 50.57 L 49.96 50.58 L 49.96 49.71 C 49.96 49.63 50.00 49.53 50.06 49.45 Z" fill="#373f51" fill-rule="nonzero" group-id="1,2,6,14,22,28,50,105,124,134,141" node-id="1107" stroke="none" target-height="1.3516006" target-width="0.55210114" target-x="49.5046" target-y="49.2329"/></g><path d="M 49.96 49.71 L 49.96 50.58 L 50.42 50.31 L 50.42 49.72 L 56.21 46.38 C 56.34 46.31 56.44 46.13 56.44 45.98 C 56.44 45.84 56.34 45.77 56.21 45.85 L 50.19 49.31 C 50.07 49.39 49.96 49.57 49.96 49.71 Z" fill="#373f51" fill-rule="nonzero" group-id="1,2,6,14,22,28,50,105,124,134" node-id="1110" stroke="none" target-height="4.804798" target-width="6.481098" target-x="49.9622" target-y="45.7741"/></g></g></g><g node-id="1468"><g node-id="1487"><g node-id="1497"><path d="M 46.13 53.61 L 48.38 52.31 C 48.51 52.23 48.70 52.24 48.90 52.36 C 49.30 52.59 49.63 53.15 49.63 53.62 C 49.63 53.85 49.55 54.02 49.41 54.09 L 47.15 55.40 C 47.29 55.32 47.37 55.16 47.37 54.92 C 47.37 54.46 47.04 53.89 46.64 53.66 C 46.44 53.55 46.26 53.54 46.13 53.61 Z" fill="#dee7f8" fill-rule="nonzero" group-id="1,2,6,14,22,28,50,106,125,135" node-id="1121" stroke="none" target-height="3.1648026" target-width="3.5024986" target-x="46.1254" target-y="52.2333"/></g><path d="M 45.91 54.09 C 45.91 54.56 46.24 55.12 46.64 55.35 C 47.04 55.58 47.37 55.39 47.37 54.92 C 47.37 54.46 47.04 53.89 46.64 53.66 C 46.24 53.43 45.91 53.62 45.91 54.09 Z" fill="#b6cbea" fill-rule="nonzero" group-id="1,2,6,14,22,28,50,106,125" node-id="1124" stroke="none" target-height="2.1473007" target-width="1.4611015" target-x="45.9095" target-y="53.4319"/></g></g></g><g node-id="1413"><path d="M 58.67 49.79 C 58.36 49.97 57.41 50.27 57.27 49.85 C 57.27 49.85 57.31 49.66 57.73 49.58 C 58.14 49.49 58.25 49.09 57.63 49.20 C 57.23 49.28 56.76 49.63 56.46 49.87 C 56.27 50.03 56.04 50.12 55.79 50.13 C 55.53 50.15 55.28 50.18 55.02 50.21 C 54.28 50.29 53.58 50.57 52.89 50.85 C 51.93 51.25 51.16 49.70 51.12 49.60 C 51.12 49.60 51.08 49.40 50.95 48.93 C 50.46 49.25 50.09 48.88 49.49 48.99 C 49.32 49.03 49.21 49.05 49.13 49.06 C 48.82 49.23 49.01 50.26 48.67 50.36 C 49.24 51.17 49.89 51.48 50.85 52.31 C 51.51 52.87 52.46 52.97 53.23 52.56 C 54.04 52.13 55.51 51.41 56.19 51.07 C 56.42 50.96 56.68 50.91 56.93 50.93 C 57.62 50.99 59.04 50.97 58.98 49.82 C 58.98 49.82 58.99 49.61 58.67 49.79 Z" fill="#ecb4bf" fill-rule="nonzero" group-id="1,2,6,14,22,28,51" node-id="1131" stroke="none" target-height="4.095001" target-width="10.366699" target-x="48.6684" target-y="48.8796"/><g node-id="1469"><g node-id="1488"><g node-id="1498"><g node-id="1504"><path d="M 51.28 49.64 C 51.09 48.68 50.68 47.47 50.52 47.04 C 50.09 45.88 48.72 45.35 48.10 45.88 C 47.48 46.42 47.18 47.43 47.61 48.59 C 47.75 48.96 48.33 49.98 48.80 50.71 C 49.68 49.22 51.27 49.63 51.28 49.64 Z" fill="#3a3a77" fill-rule="nonzero" group-id="1,2,6,14,22,28,51,107,126,136,142" node-id="1141" stroke="none" target-height="5.362297" target-width="4.099102" target-x="47.1816" target-y="45.3468"/></g></g></g></g></g></g><path d="M 73.41 84.56 C 72.21 84.48 71.72 84.72 70.81 83.88 L 69.28 84.26 C 69.28 84.26 68.84 85.62 69.19 86.09 C 69.52 86.51 70.69 86.02 71.85 86.05 C 72.08 86.06 72.30 86.06 72.53 86.01 C 73.01 85.91 73.81 85.70 74.18 85.29 C 74.18 85.29 74.59 84.66 73.41 84.56 Z" fill="#2a2a5e" fill-rule="nonzero" group-id="1,2,6,14,22" node-id="1149" stroke="none" target-height="2.6278992" target-width="5.751602" target-x="68.8376" target-y="83.883"/><path d="M 71.02 83.08 C 69.82 83.00 69.33 83.25 68.42 82.41 L 66.90 82.78 C 66.90 82.78 66.45 84.15 66.81 84.61 C 67.14 85.03 68.31 84.54 69.46 84.58 C 69.69 84.58 69.92 84.58 70.14 84.53 C 70.62 84.44 71.43 84.22 71.79 83.82 C 71.79 83.82 72.20 83.18 71.02 83.08 Z" fill="#2a2a5e" fill-rule="nonzero" group-id="1,2,6,14,22" node-id="1151" stroke="none" target-height="2.6278992" target-width="5.7514954" target-x="66.4512" target-y="82.4052"/><path d="M 70.12 69.32 L 66.40 68.13 C 66.19 68.50 64.94 69.98 65.65 72.26 C 66.02 73.44 66.50 76.34 66.37 77.28 C 65.96 80.23 66.79 83.17 66.79 83.17 C 67.61 83.35 68.27 83.26 68.62 82.61 C 68.55 81.70 68.79 79.50 68.92 77.68 C 68.96 77.05 69.05 76.44 69.22 75.85 C 70.47 71.30 70.12 69.32 70.12 69.32 Z" fill="#3a3a77" fill-rule="nonzero" group-id="1,2,6,14,22,29,52" node-id="1157" stroke="none" target-height="15.218704" target-width="5.5233994" target-x="64.945" target-y="68.1327"/><path d="M 72.49 70.80 L 68.76 69.61 C 68.56 69.98 67.31 71.45 68.02 73.73 C 68.38 74.91 68.86 77.81 68.73 78.75 C 68.33 81.71 69.16 84.64 69.16 84.64 C 69.97 84.82 70.64 84.74 70.99 84.08 C 70.92 83.17 71.16 80.97 71.28 79.15 C 71.33 78.53 71.42 77.92 71.58 77.33 C 72.83 72.77 72.49 70.80 72.49 70.80 Z" fill="#4c4a8b" fill-rule="nonzero" group-id="1,2,6,14,22,30,53" node-id="1165" stroke="none" target-height="15.218697" target-width="5.5234985" target-x="67.3102" target-y="69.6062"/><path d="M 60.42 53.15 C 60.46 53.19 60.50 53.23 60.53 53.27 L 60.81 53.71 C 60.78 53.66 60.78 53.59 60.82 53.50 C 60.90 53.32 61.11 53.13 61.30 53.08 C 61.38 53.06 61.45 53.08 61.48 53.12 L 61.48 53.12 L 61.42 53.03 C 61.29 52.82 61.41 52.81 61.44 52.55 C 61.48 52.25 61.46 51.94 61.42 51.63 C 61.41 51.61 61.40 51.59 61.39 51.58 L 61.39 51.58 C 61.34 51.53 61.24 51.54 61.19 51.62 C 61.18 51.63 61.17 51.65 61.17 51.66 L 61.09 51.98 C 61.07 52.05 61.01 52.10 60.94 52.08 C 60.91 52.08 60.89 52.05 60.88 52.02 C 60.79 51.76 60.68 51.65 60.54 51.42 C 60.53 51.41 60.51 51.39 60.50 51.38 C 60.45 51.35 60.37 51.37 60.32 51.43 L 60.31 51.42 C 60.26 51.37 60.12 51.41 60.08 51.49 C 60.06 51.48 60.03 51.49 60.01 51.50 C 59.94 51.52 59.92 51.56 59.90 51.63 C 59.89 51.66 59.90 51.69 59.91 51.72 C 59.76 51.73 59.78 51.89 59.79 51.91 C 59.93 52.29 59.96 52.66 60.42 53.15 Z" fill="#ecb4bf" fill-rule="nonzero" group-id="1,2,6,14,22,31,54" node-id="1173" stroke="none" target-height="2.3572006" target-width="1.7269974" target-x="59.7559" target-y="51.349"/><path d="M 66.88 60.22 C 67.58 60.01 67.64 59.42 67.55 58.93 C 67.48 58.48 67.26 58.10 66.95 57.82 C 65.82 56.79 63.87 55.88 63.75 55.62 C 63.62 55.33 62.97 54.35 62.73 54.11 C 62.49 53.87 61.58 52.82 61.58 52.82 C 60.77 52.76 60.55 53.49 60.55 53.49 C 60.56 53.74 62.27 56.39 62.31 56.67 C 62.36 56.95 65.62 60.61 66.88 60.22 Z" fill="#1e72c6" fill-rule="nonzero" group-id="1,2,6,14,22,31,54" node-id="1175" stroke="none" target-height="7.8507004" target-width="7.089798" target-x="60.5494" target-y="52.7614"/><path d="M 73.16 63.84 C 73.68 63.35 74.26 61.96 73.02 61.44 C 71.92 60.99 72.62 59.98 71.82 59.56 C 70.96 59.11 69.93 58.30 69.93 58.30 C 69.93 58.30 68.62 58.87 67.43 58.02 C 67.43 58.02 65.57 57.80 65.57 59.35 C 65.57 60.89 65.78 61.11 66.02 63.63 C 66.31 66.76 66.04 67.93 65.91 68.80 C 65.91 68.80 70.33 73.09 72.69 70.91 C 72.69 70.91 72.45 69.70 72.33 68.61 C 72.24 67.80 72.08 66.21 72.27 65.43 C 72.38 64.99 72.96 64.03 73.16 63.84 Z" fill="#1e72c6" fill-rule="nonzero" group-id="1,2,6,14,22,31,55,108,127" node-id="1184" stroke="none" target-height="15.288803" target-width="8.694" target-x="65.5697" target-y="57.8042"/><path d="M 71.33 53.78 C 71.33 53.78 69.05 54.16 69.03 54.20 C 69.02 54.23 67.49 57.01 69.11 57.51 C 69.69 57.69 70.31 58.32 70.61 57.90 C 71.14 57.17 71.35 55.51 71.37 55.12 C 71.41 54.51 71.33 53.78 71.33 53.78 Z" fill="#e2b3c7" fill-rule="nonzero" group-id="1,2,6,14,22,31,55,108,127" node-id="1186" stroke="none" target-height="4.5322" target-width="3.9253998" target-x="67.4852" target-y="53.7847"/><path d="M 80.39 60.05 C 80.33 60.06 80.28 60.07 80.23 60.09 L 79.74 60.25 C 79.79 60.23 79.83 60.18 79.86 60.08 C 79.91 59.89 79.86 59.61 79.75 59.46 C 79.69 59.39 79.63 59.36 79.58 59.37 L 79.58 59.37 L 79.69 59.34 C 79.91 59.26 79.83 59.18 79.97 58.95 C 80.13 58.69 80.33 58.46 80.56 58.25 C 80.58 58.24 80.59 58.23 80.61 58.23 L 80.61 58.23 C 80.69 58.22 80.75 58.29 80.75 58.38 C 80.75 58.40 80.74 58.42 80.74 58.43 L 80.60 58.73 C 80.57 58.79 80.59 58.87 80.65 58.90 C 80.68 58.92 80.71 58.91 80.74 58.89 C 80.97 58.74 81.12 58.73 81.38 58.64 C 81.40 58.63 81.41 58.63 81.43 58.63 C 81.49 58.64 81.54 58.71 81.54 58.78 L 81.55 58.78 C 81.62 58.77 81.71 58.89 81.69 58.98 C 81.71 58.99 81.73 59.00 81.74 59.03 C 81.78 59.09 81.77 59.13 81.74 59.20 C 81.73 59.23 81.71 59.25 81.68 59.26 C 81.80 59.36 81.67 59.48 81.66 59.49 C 81.31 59.70 81.05 59.97 80.39 60.05 Z" fill="#ecb4bf" fill-rule="nonzero" group-id="1,2,6,14,22,31,56,109" node-id="1195" stroke="none" target-height="2.030899" target-width="2.2174988" target-x="79.579" target-y="58.2193"/><path d="M 70.92 61.53 C 70.51 60.92 70.84 60.42 71.21 60.10 C 71.55 59.80 71.95 59.64 72.37 59.61 C 73.90 59.52 75.99 60.03 76.24 59.90 C 76.52 59.76 77.65 59.40 77.99 59.36 C 78.33 59.32 79.69 59.08 79.69 59.08 C 80.36 59.54 80.07 60.25 80.07 60.25 C 79.90 60.43 76.92 61.42 76.71 61.62 C 76.49 61.81 71.66 62.62 70.92 61.53 Z" fill="#1e72c6" fill-rule="nonzero" group-id="1,2,6,14,22,31,56,109" node-id="1197" stroke="none" target-height="3.5405998" target-width="9.844406" target-x="70.5143" target-y="59.0806"/><path d="M 67.25 52.83 C 67.25 52.83 66.85 53.14 66.71 54.19 C 66.71 54.20 66.71 54.20 66.71 54.20 C 66.62 54.32 66.50 54.41 66.43 54.52 C 66.31 54.71 66.32 54.95 66.33 55.18 C 66.35 55.47 66.36 55.76 66.38 56.05 C 66.39 56.20 66.40 56.36 66.46 56.51 C 66.52 56.66 66.64 56.79 66.71 56.95 C 66.85 57.32 66.63 57.76 66.75 58.14 C 66.82 58.36 66.99 58.53 67.02 58.75 C 67.07 59.11 66.73 59.44 66.78 59.79 C 66.82 60.01 66.99 60.19 67.00 60.41 C 67.00 60.60 66.88 60.78 66.79 60.95 C 66.59 61.39 66.68 61.94 67.00 62.30 C 67.05 62.34 67.10 62.39 67.16 62.41 C 67.32 62.45 67.49 62.31 67.65 62.36 C 67.77 62.40 67.83 62.55 67.94 62.63 C 68.04 62.70 68.17 62.71 68.29 62.72 C 68.72 62.74 69.16 62.76 69.60 62.79 C 69.68 62.79 69.76 62.80 69.83 62.76 C 69.92 62.70 69.96 62.57 70.06 62.52 C 70.19 62.46 70.35 62.55 70.48 62.49 C 70.58 62.44 70.62 62.30 70.59 62.19 C 70.57 62.07 70.50 61.97 70.45 61.87 C 70.14 61.23 70.49 60.47 70.33 59.78 C 70.26 59.44 70.06 59.14 70.01 58.80 C 69.97 58.52 70.02 58.24 70.05 57.96 C 70.12 57.21 69.97 56.45 69.98 55.70 C 69.98 55.63 70.02 55.56 70.07 55.52 C 70.08 55.52 70.08 55.52 70.08 55.52 C 70.23 55.40 70.44 55.49 70.47 55.67 C 70.49 55.81 70.51 55.97 70.51 56.14 L 70.77 55.89 C 70.77 55.89 70.64 55.59 70.72 55.11 C 70.73 55.06 70.75 55.02 70.79 54.99 C 71.15 54.74 71.41 54.46 71.42 53.68 C 71.45 52.22 68.33 51.24 67.25 52.83 Z" fill="#a0533f" fill-rule="nonzero" group-id="1,2,6,14,22,31" node-id="1201" stroke="none" target-height="11.559799" target-width="5.143196" target-x="66.3058" target-y="51.2379"/></g></g></g></g><g node-id="1365"><g node-id="1369"><g node-id="1377"><g node-id="1385"><g node-id="1394"><path d="M 99.02 72.80 L 88.88 66.91 L 95.88 62.87 L 106.01 68.76 Z" fill="#6262aa" fill-rule="nonzero" group-id="1,3,7,15,23,32" node-id="1218" stroke="none" target-height="9.9272" target-width="17.1279" target-x="88.8842" target-y="62.8692"/></g><g node-id="1395"><path d="M 99.02 72.80 L 88.88 66.91 L 88.88 65.48 L 99.02 71.37 Z" fill="#7d8086" fill-rule="nonzero" group-id="1,3,7,15,23,33" node-id="1223" stroke="none" target-height="7.3206024" target-width="10.1405945" target-x="88.8802" target-y="65.4758"/></g><g node-id="1396"><path d="M 105.28 67.18 L 105.28 68.61 L 98.54 72.50 L 98.53 71.07 Z" fill="#ffffff" fill-rule="nonzero" group-id="1,3,7,15,23,34" node-id="1228" stroke="none" target-height="5.3219986" target-width="6.7453003" target-x="98.5345" target-y="67.1815"/></g><g node-id="1397"><path d="M 98.58 71.12 L 88.44 65.23 L 95.87 60.93 L 106.01 66.83 Z" fill="#6262aa" fill-rule="nonzero" group-id="1,3,7,15,23,35" node-id="1233" stroke="none" target-height="10.181297" target-width="17.5681" target-x="88.4386" target-y="60.9345"/></g><g node-id="1398"><path d="M 98.58 73.42 L 88.45 67.53 L 88.44 65.23 L 98.58 71.12 Z" fill="#2a2a5e" fill-rule="nonzero" group-id="1,3,7,15,23,36" node-id="1238" stroke="none" target-height="8.1987" target-width="10.143501" target-x="88.4386" target-y="65.2251"/></g><path d="M 93.24 68.62 L 93.24 69.84 L 88.97 67.36 L 88.97 66.14 Z" fill="#ffffff" fill-rule="nonzero" group-id="1,3,7,15,23" node-id="1241" stroke="none" target-height="3.6987" target-width="4.271698" target-x="88.9683" target-y="66.1425"/><path d="M 96.47 71.24 C 96.47 71.63 96.73 72.08 97.07 72.28 C 97.18 72.34 97.28 72.37 97.38 72.37 C 97.45 72.37 97.52 72.35 97.58 72.32 C 97.73 72.24 97.80 72.08 97.81 71.86 C 97.81 71.47 97.54 71.01 97.20 70.83 C 97.10 70.77 97.00 70.74 96.90 70.74 C 96.83 70.74 96.76 70.76 96.69 70.79 C 96.55 70.86 96.47 71.02 96.47 71.24 Z" fill="#ffffff" fill-rule="nonzero" group-id="1,3,7,15,23,37,57,110" node-id="1249" stroke="none" target-height="1.6353989" target-width="1.3359985" target-x="96.4718" target-y="70.7351"/><path d="M 97.14 70.99 C 96.87 70.83 96.65 70.96 96.65 71.27 C 96.65 71.58 96.86 71.96 97.13 72.11 C 97.40 72.27 97.63 72.15 97.63 71.84 C 97.63 71.53 97.41 71.14 97.14 70.99 Z" fill="#2a2a5e" fill-rule="nonzero" group-id="1,3,7,15,23,37,58" node-id="1255" stroke="none" target-height="1.4368973" target-width="0.9810028" target-x="96.6473" target-y="70.8327"/><path d="M 106.01 66.83 L 106.01 67.33 L 105.76 67.34 L 99.02 71.23 L 99.02 72.80 L 106.01 68.76 L 106.01 69.13 L 98.58 73.42 L 98.58 71.12 Z" fill="#4c4a8b" fill-rule="nonzero" group-id="1,3,7,15,23,38" node-id="1261" stroke="none" target-height="6.5985947" target-width="7.4384995" target-x="98.5751" target-y="66.8252"/></g></g></g><g node-id="1370"><g node-id="1378"><g node-id="1386"><g node-id="1401"><path d="M 99.02 69.62 L 88.88 63.73 L 95.88 59.69 L 106.01 65.59 Z" fill="#6b9ef9" fill-rule="nonzero" group-id="1,3,8,16,24,39" node-id="1275" stroke="none" target-height="9.927204" target-width="17.1279" target-x="88.8842" target-y="59.6947"/></g><g node-id="1402"><path d="M 99.02 69.62 L 88.88 63.73 L 88.88 62.30 L 99.02 68.19 Z" fill="#7d8086" fill-rule="nonzero" group-id="1,3,8,16,24,40" node-id="1280" stroke="none" target-height="7.3207016" target-width="10.1405945" target-x="88.8802" target-y="62.3012"/></g><g node-id="1403"><path d="M 105.28 64.01 L 105.28 65.44 L 98.54 69.33 L 98.53 67.90 Z" fill="#ffffff" fill-rule="nonzero" group-id="1,3,8,16,24,41" node-id="1285" stroke="none" target-height="5.322006" target-width="6.7453003" target-x="98.5345" target-y="64.0069"/></g><g node-id="1404"><path d="M 98.58 67.94 L 88.44 62.05 L 95.87 57.76 L 106.01 63.65 Z" fill="#6b9ef9" fill-rule="nonzero" group-id="1,3,8,16,24,42" node-id="1290" stroke="none" target-height="10.181301" target-width="17.5681" target-x="88.4386" target-y="57.7599"/></g><g node-id="1405"><path d="M 98.58 70.25 L 88.45 64.36 L 88.44 62.05 L 98.58 67.94 Z" fill="#1e72c6" fill-rule="nonzero" group-id="1,3,8,16,24,43" node-id="1295" stroke="none" target-height="8.198799" target-width="10.143501" target-x="88.4386" target-y="62.0505"/></g><path d="M 93.24 65.45 L 93.24 66.67 L 88.97 64.19 L 88.97 62.97 Z" fill="#ffffff" fill-rule="nonzero" group-id="1,3,8,16,24" node-id="1298" stroke="none" target-height="3.6986046" target-width="4.271698" target-x="88.9683" target-y="62.968"/><path d="M 96.47 68.07 C 96.47 68.46 96.73 68.91 97.07 69.11 C 97.18 69.17 97.28 69.20 97.38 69.20 C 97.45 69.20 97.52 69.18 97.58 69.15 C 97.73 69.07 97.80 68.91 97.81 68.69 C 97.81 68.30 97.54 67.84 97.20 67.65 C 97.10 67.59 97.00 67.56 96.90 67.56 C 96.83 67.56 96.76 67.58 96.69 67.61 C 96.55 67.69 96.47 67.85 96.47 68.07 Z" fill="#ffffff" fill-rule="nonzero" group-id="1,3,8,16,24,44,59,111" node-id="1306" stroke="none" target-height="1.6353989" target-width="1.3359985" target-x="96.4718" target-y="67.5606"/><path d="M 97.14 67.81 C 96.87 67.66 96.65 67.79 96.65 68.10 C 96.65 68.41 96.86 68.78 97.13 68.94 C 97.40 69.10 97.63 68.97 97.63 68.66 C 97.63 68.35 97.41 67.97 97.14 67.81 Z" fill="#2a2a5e" fill-rule="nonzero" group-id="1,3,8,16,24,44,60" node-id="1312" stroke="none" target-height="1.4368973" target-width="0.9810028" target-x="96.6473" target-y="67.6582"/><path d="M 106.01 63.65 L 106.01 64.16 L 105.76 64.17 L 99.02 68.06 L 99.02 69.62 L 106.01 65.59 L 106.01 65.96 L 98.58 70.25 L 98.58 67.94 Z" fill="#3887e5" fill-rule="nonzero" group-id="1,3,8,16,24,45" node-id="1318" stroke="none" target-height="6.5986977" target-width="7.4384995" target-x="98.5751" target-y="63.6506"/></g></g></g></g><g node-id="1366"><g node-id="1371"><path d="M 86.75 75.15 L 86.74 75.81 C 86.74 75.32 86.42 74.83 85.77 74.46 C 85.13 74.09 84.28 73.90 83.44 73.90 C 83.33 73.90 83.22 73.90 83.10 73.91 C 82.80 73.93 82.49 73.97 82.20 74.04 C 81.97 74.09 81.76 74.16 81.55 74.25 C 81.40 74.31 81.25 74.38 81.11 74.46 L 81.11 74.46 C 80.47 74.83 80.15 75.32 80.15 75.80 L 80.15 75.13 C 80.16 74.65 80.48 74.16 81.11 73.79 C 81.25 73.71 81.40 73.64 81.55 73.58 C 81.76 73.50 81.97 73.43 82.20 73.37 C 82.49 73.30 82.80 73.26 83.11 73.24 C 83.22 73.24 83.33 73.23 83.44 73.23 C 84.28 73.23 85.13 73.42 85.77 73.79 C 86.42 74.17 86.75 74.66 86.75 75.15 Z" fill="#2a2a5e" fill-rule="nonzero" group-id="1,4,9" node-id="1329" stroke="none" target-height="2.581398" target-width="6.5927963" target-x="80.1548" target-y="73.2331"/><path d="M 85.77 74.21 C 87.06 74.96 87.07 76.17 85.79 76.91 C 84.51 77.66 82.42 77.66 81.13 76.91 C 79.84 76.17 79.83 74.96 81.11 74.21 C 82.40 73.47 84.48 73.47 85.77 74.21 Z" fill="#6b9ef9" fill-rule="nonzero" group-id="1,4,9" node-id="1331" stroke="none" target-height="4.1904984" target-width="7.2414017" target-x="79.8304" target-y="73.4657"/><g node-id="1379"><path d="M 81.73 74.90 C 81.58 74.98 81.46 75.07 81.35 75.17 C 81.39 74.92 81.57 74.68 81.90 74.49 C 82.61 74.07 83.74 74.06 84.50 74.43 C 83.53 74.31 82.48 74.47 81.73 74.90 Z" fill="#ffffff" fill-rule="nonzero" group-id="1,4,9,17" node-id="1335" stroke="none" target-height="1.1109009" target-width="3.1474" target-x="81.3501" target-y="74.0571"/></g><path d="M 87.40 75.15 L 87.40 75.79 C 87.40 76.38 87.02 76.96 86.25 77.40 C 84.71 78.30 82.21 78.30 80.66 77.40 C 79.88 76.95 79.49 76.36 79.50 75.77 L 79.50 75.13 C 79.50 75.72 79.89 76.31 80.67 76.76 C 82.21 77.65 84.72 77.65 86.25 76.76 C 87.02 76.32 87.40 75.73 87.40 75.15 Z" fill="#2a2a5e" fill-rule="nonzero" group-id="1,4,9" node-id="1338" stroke="none" target-height="3.1653976" target-width="7.9086" target-x="79.4949" target-y="75.1304"/><path d="M 86.24 73.52 C 87.79 74.42 87.79 75.87 86.26 76.76 C 84.72 77.65 82.21 77.65 80.67 76.76 C 79.12 75.87 79.11 74.42 80.65 73.52 C 82.19 72.63 84.69 72.63 86.24 73.52 Z M 81.13 76.49 C 82.42 77.24 84.51 77.24 85.79 76.49 C 87.07 75.75 87.06 74.54 85.77 73.79 C 84.48 73.05 82.40 73.05 81.11 73.79 C 79.83 74.54 79.84 75.75 81.13 76.49 L 81.13 76.49 Z" fill="#6262aa" fill-rule="nonzero" group-id="1,4,9" node-id="1340" stroke="none" target-height="5.026001" target-width="8.684906" target-x="79.1085" target-y="72.6286"/><path d="M 86.81 76.62 C 86.75 76.59 86.67 76.59 86.58 76.65 C 86.40 76.75 86.26 77.00 86.26 77.20 C 86.26 77.31 86.29 77.38 86.35 77.41 L 88.57 78.70 C 88.51 78.67 88.48 78.59 88.48 78.49 C 88.47 78.29 88.62 78.04 88.80 77.93 C 88.89 77.88 88.97 77.88 89.03 77.91 L 86.81 76.62 Z" fill="#9eb5df" fill-rule="nonzero" group-id="1,4,9" node-id="1342" stroke="none" target-height="2.111206" target-width="2.7710953" target-x="86.2563" target-y="76.589"/></g><g node-id="1372"><path d="M 87.50 76.76 C 87.41 76.70 87.28 76.71 87.15 76.79 C 86.87 76.95 86.65 77.34 86.65 77.65 C 86.65 77.81 86.70 77.92 86.79 77.97 L 87.25 78.24 C 87.16 78.18 87.10 78.07 87.10 77.92 C 87.10 77.60 87.32 77.21 87.60 77.06 C 87.74 76.97 87.86 76.97 87.95 77.02 L 87.50 76.76 Z" fill="#3887e5" fill-rule="nonzero" group-id="1,4,10" node-id="1347" stroke="none" target-height="1.5311966" target-width="1.3049011" target-x="86.6477" target-y="76.7049"/><g node-id="1380"><path d="M 87.60 77.06 C 87.87 76.90 88.10 77.02 88.10 77.34 C 88.10 77.66 87.88 78.04 87.60 78.20 C 87.33 78.36 87.10 78.23 87.10 77.92 C 87.10 77.60 87.32 77.21 87.60 77.06 Z" fill="#1e72c6" fill-rule="nonzero" group-id="1,4,10,18" node-id="1351" stroke="none" target-height="1.4645004" target-width="0.9993973" target-x="87.0996" target-y="76.8959"/></g></g><g node-id="1373"><path d="M 87.95 77.18 C 87.88 77.13 87.78 77.14 87.66 77.20 C 87.43 77.34 87.25 77.66 87.25 77.92 C 87.25 78.05 87.29 78.14 87.37 78.19 L 90.61 80.07 C 90.53 80.03 90.49 79.93 90.49 79.80 C 90.49 79.54 90.67 79.22 90.90 79.09 C 91.02 79.02 91.12 79.01 91.19 79.06 L 87.95 77.18 Z" fill="#3887e5" fill-rule="nonzero" group-id="1,4,11" node-id="1357" stroke="none" target-height="2.9375" target-width="3.9491043" target-x="87.2458" target-y="77.1317"/><g node-id="1381"><path d="M 90.90 79.09 C 91.13 78.95 91.32 79.06 91.32 79.32 C 91.32 79.59 91.13 79.91 90.90 80.04 C 90.67 80.17 90.49 80.07 90.49 79.80 C 90.49 79.54 90.67 79.22 90.90 79.09 Z" fill="#1e72c6" fill-rule="nonzero" group-id="1,4,11,19" node-id="1361" stroke="none" target-height="1.2174988" target-width="0.8308945" target-x="90.4857" target-y="78.9549"/></g></g></g></g></svg>